<svg xmlns="http://www.w3.org/2000/svg" viewBox="0 0 500 500"><g id="freepik--Floor--inject-221"><path d="M409,250.09C320.63,199,177.76,199,89.92,250.09S2.55,383.89,91,434.93s231.28,51.05,319.12,0S497.45,301.13,409,250.09Z" style="fill:#f5f5f5"></path></g><g id="freepik--Carpet--inject-221"><path d="M442.27,317.28c0,2-1.31,4.09-4,5.65L235.8,439.82c-5.33,3.08-13.94,3.08-19.23,0L58.37,347.88c-2.74-1.59-4-3.69-3.94-5.77h0v2.33h0c.08,1.94,1.39,3.87,3.94,5.35l158.2,91.94c5.29,3.08,13.9,3.08,19.23,0L438.26,324.82c2.64-1.52,4-3.51,4-5.51h0v-2.05Z" style="fill:#EFE3AF"></path><path d="M442.27,317.28c0,2-1.31,4.09-4,5.65L235.8,439.82c-5.33,3.08-13.94,3.08-19.23,0L58.37,347.88c-2.74-1.59-4-3.69-3.94-5.77h0v2.33h0c.08,1.94,1.39,3.87,3.94,5.35l158.2,91.94c5.29,3.08,13.9,3.08,19.23,0L438.26,324.82c2.64-1.52,4-3.51,4-5.51h0v-2.05Z" style="opacity:0.2"></path><path d="M58.37,347.88l158.2,91.94c5.29,3.08,13.9,3.08,19.23,0L438.26,322.93c2.7-1.56,4-3.61,4-5.65s-1.33-4-3.94-5.49l-158.2-91.94c-5.3-3.08-13.91-3.08-19.24,0L58.43,336.74c-2.58,1.48-3.9,3.42-4,5.37S55.63,346.29,58.37,347.88Z" style="fill:#EFE3AF"></path><path d="M58.37,347.88l158.2,91.94c5.29,3.08,13.9,3.08,19.23,0L438.26,322.93c2.7-1.56,4-3.61,4-5.65s-1.33-4-3.94-5.49l-158.2-91.94c-5.3-3.08-13.91-3.08-19.24,0L58.43,336.74c-2.58,1.48-3.9,3.42-4,5.37S55.63,346.29,58.37,347.88Z" style="opacity:0.1"></path><path d="M58.37,347.88l158.2,91.94c5.29,3.08,13.9,3.08,19.23,0L438.26,322.93c2.7-1.56,4-3.61,4-5.65s-1.33-4-3.94-5.49l-158.2-91.94c-5.3-3.08-13.91-3.08-19.24,0L58.43,336.74c-2.58,1.48-3.9,3.42-4,5.37S55.63,346.29,58.37,347.88Z" style="fill:#fff;opacity:0.30000000000000004"></path><g style="opacity:0.30000000000000004"><path d="M226.19,421.81,89.49,342.37l181-104.51L407.2,317.3ZM94.91,342.37l131.28,76.3L401.78,317.3,270.5,241Z" style="fill:#fff"></path><path d="M226.2,413.43,104,342.39l166.53-96.15,122.24,71Zm-116.81-71L226.2,410.28l161.1-93-116.81-67.9Z" style="fill:#fff"></path></g></g><g id="freepik--Window--inject-221"><polygon points="121.6 96.51 121.84 202.49 117.06 205.25 116.82 99.27 121.6 96.51" style="fill:#e0e0e0"></polygon><polygon points="116.82 99.27 116.82 99.27 117.06 205.25 112.91 202.84 112.68 101.66 116.82 99.27" style="fill:#f0f0f0"></polygon><rect x="116.45" y="97.89" width="5.52" transform="translate(-32.97 72.72) rotate(-30)" style="fill:#e0e0e0"></rect><polygon points="116.83 103.12 116.82 99.27 121.6 96.51 121.61 100.36 116.83 103.12 116.83 103.12" style="opacity:0.2"></polygon><polygon points="116.83 103.12 113.48 101.19 116.82 99.27 116.82 99.27 116.83 103.12" style="opacity:0.2"></polygon><rect x="116.45" y="97.89" width="5.52" transform="translate(-32.97 72.72) rotate(-30)" style="fill:#e0e0e0"></rect><polygon points="179.07 63.32 174.92 60.91 175.17 166.89 179.32 169.3 179.07 63.32" style="fill:#f0f0f0"></polygon><polygon points="179.32 169.3 175.17 166.89 55.42 236.02 59.58 238.44 179.32 169.3" style="fill:#f5f5f5"></polygon><path d="M184.11,172,54.82,246.68l-.28-117,129.3-74.65ZM59.58,238.44,179.32,169.3l-.25-106L59.33,132.46l.25,106" style="fill:#e0e0e0"></path><polygon points="183.84 55.08 179.68 52.66 50.39 127.31 54.54 129.73 183.84 55.08" style="fill:#f5f5f5"></polygon><polygon points="54.54 129.73 50.39 127.31 50.66 244.27 54.82 246.68 54.54 129.73" style="fill:#f0f0f0"></polygon></g><g id="freepik--Shadows--inject-221"><path d="M89.25,333c-6.21-3.58-16.23-3.58-22.4,0s-6.13,9.39.08,13,16.23,3.59,22.39,0S95.45,336.61,89.25,333Z" style="opacity:0.1"></path><path d="M321.32,298.4l30.39-17.54a1.34,1.34,0,0,0,0-2.33L324.93,263a1.36,1.36,0,0,0-1.35,0l-31.06,17.93a1.35,1.35,0,0,0,0,2.33l26.1,15.17A2.69,2.69,0,0,0,321.32,298.4Z" style="opacity:0.1"></path><path d="M268.48,363.66c-16.39-9.47-42.89-9.47-59.18,0s-16.21,24.81.19,34.28,42.9,9.47,59.19,0S284.88,373.13,268.48,363.66Z" style="opacity:0.1"></path><path d="M304.88,317.14c-13.81-8-36.13-8-49.85,0s-13.66,20.9.16,28.88,36.13,8,49.86,0S318.7,325.11,304.88,317.14Z" style="opacity:0.1"></path><polygon points="462.91 302.81 447.97 312.08 332.51 244.91 194.86 243.33 195.33 228.59 341.96 228.59 462.91 302.81" style="opacity:0.15"></polygon></g><g id="freepik--Album--inject-221"><path d="M350.88,74.93a1.5,1.5,0,0,1-1.5-1.49c0-1.94-1.44-3.83-4-5.31-4-2.3-9.82-3.12-15.24-2.14A1.5,1.5,0,1,1,329.6,63c6.08-1.1,12.7-.15,17.27,2.49,3.53,2,5.49,4.84,5.51,7.89a1.5,1.5,0,0,1-1.49,1.51Z" style="fill:#37474f"></path><path d="M350.88,85.31a1.5,1.5,0,0,1-1.5-1.49c0-1.94-1.44-3.82-4-5.31-4-2.3-9.82-3.12-15.24-2.13a1.5,1.5,0,0,1-.53-3c6.08-1.1,12.7-.15,17.27,2.49,3.53,2,5.49,4.85,5.51,7.89a1.49,1.49,0,0,1-1.49,1.51Z" style="fill:#37474f"></path><path d="M350.88,95.7a1.51,1.51,0,0,1-1.5-1.49c0-1.94-1.44-3.83-4-5.32-4-2.3-9.82-3.11-15.24-2.13a1.5,1.5,0,0,1-.53-3c6.08-1.11,12.7-.15,17.27,2.49,3.53,2,5.49,4.84,5.51,7.89a1.5,1.5,0,0,1-1.49,1.51Z" style="fill:#37474f"></path><path d="M350.88,106.08a1.5,1.5,0,0,1-1.5-1.49c0-1.94-1.44-3.83-4-5.31-4-2.3-9.82-3.12-15.24-2.14a1.5,1.5,0,1,1-.53-3c6.08-1.1,12.7-.15,17.27,2.49,3.53,2,5.49,4.84,5.51,7.89a1.5,1.5,0,0,1-1.49,1.51Z" style="fill:#37474f"></path><path d="M350.88,116.46a1.5,1.5,0,0,1-1.5-1.49c0-1.94-1.44-3.82-4-5.31-4-2.3-9.82-3.12-15.24-2.13a1.5,1.5,0,0,1-.53-3c6.08-1.1,12.7-.15,17.27,2.49,3.53,2,5.49,4.85,5.51,7.89a1.49,1.49,0,0,1-1.49,1.51Z" style="fill:#37474f"></path><path d="M350.88,126.85a1.51,1.51,0,0,1-1.5-1.49c0-1.94-1.44-3.83-4-5.32-4-2.3-9.82-3.11-15.24-2.13a1.5,1.5,0,1,1-.53-3c6.08-1.11,12.7-.15,17.27,2.49,3.53,2,5.49,4.84,5.51,7.89a1.5,1.5,0,0,1-1.49,1.51Z" style="fill:#37474f"></path><path d="M350.88,137.23a1.5,1.5,0,0,1-1.5-1.49c0-1.94-1.44-3.83-4-5.31-4-2.3-9.82-3.12-15.24-2.14a1.5,1.5,0,1,1-.53-2.95c6.08-1.1,12.7-.15,17.27,2.49,3.53,2,5.49,4.84,5.51,7.89a1.5,1.5,0,0,1-1.49,1.51Z" style="fill:#37474f"></path><path d="M350.88,147.61a1.5,1.5,0,0,1-1.5-1.49c0-1.94-1.44-3.82-4-5.31-4-2.3-9.82-3.12-15.24-2.13a1.5,1.5,0,0,1-.53-3c6.08-1.1,12.7-.15,17.27,2.49,3.53,2,5.49,4.85,5.51,7.89a1.49,1.49,0,0,1-1.49,1.51Z" style="fill:#37474f"></path><path d="M350.88,158a1.51,1.51,0,0,1-1.5-1.49c0-1.94-1.44-3.83-4-5.32-4-2.3-9.82-3.11-15.24-2.13a1.5,1.5,0,0,1-.53-2.95c6.08-1.11,12.7-.15,17.27,2.49,3.53,2,5.49,4.84,5.51,7.89a1.5,1.5,0,0,1-1.49,1.51Z" style="fill:#37474f"></path><path d="M350.88,168.38a1.5,1.5,0,0,1-1.5-1.49c0-1.94-1.44-3.83-4-5.31-4-2.3-9.82-3.12-15.24-2.14a1.5,1.5,0,1,1-.53-2.95c6.08-1.1,12.7-.15,17.27,2.49,3.53,2,5.49,4.84,5.51,7.89a1.5,1.5,0,0,1-1.49,1.51Z" style="fill:#37474f"></path><path d="M350.88,178.76a1.5,1.5,0,0,1-1.5-1.49c0-1.94-1.44-3.82-4-5.31-4-2.3-9.82-3.12-15.24-2.13a1.5,1.5,0,0,1-.53-3c6.08-1.1,12.7-.15,17.27,2.49,3.53,2,5.49,4.85,5.51,7.89a1.49,1.49,0,0,1-1.49,1.51Z" style="fill:#37474f"></path><path d="M350.88,189.15a1.51,1.51,0,0,1-1.5-1.49c0-1.94-1.44-3.83-4-5.32-4-2.3-9.82-3.11-15.24-2.13a1.5,1.5,0,0,1-.53-3c6.08-1.11,12.7-.15,17.27,2.49,3.53,2,5.49,4.84,5.51,7.89a1.5,1.5,0,0,1-1.49,1.51Z" style="fill:#37474f"></path><path d="M350.88,199.53a1.51,1.51,0,0,1-1.5-1.49c0-1.94-1.44-3.83-4-5.31-4-2.3-9.82-3.12-15.24-2.14a1.5,1.5,0,1,1-.53-3c6.08-1.1,12.7-.15,17.27,2.49,3.53,2,5.49,4.84,5.51,7.89a1.5,1.5,0,0,1-1.49,1.51Z" style="fill:#37474f"></path><path d="M350.88,209.91a1.5,1.5,0,0,1-1.5-1.49c0-1.94-1.44-3.82-4-5.31-4-2.3-9.82-3.12-15.24-2.13a1.5,1.5,0,0,1-.53-3c6.08-1.1,12.7-.15,17.27,2.49,3.53,2,5.49,4.85,5.51,7.89a1.49,1.49,0,0,1-1.49,1.51Z" style="fill:#37474f"></path><path d="M350.88,220.3a1.51,1.51,0,0,1-1.5-1.49c0-1.94-1.44-3.83-4-5.32-4-2.3-9.82-3.11-15.24-2.13a1.5,1.5,0,0,1-.53-3c6.08-1.11,12.7-.15,17.27,2.49,3.53,2,5.49,4.84,5.51,7.89a1.5,1.5,0,0,1-1.49,1.51Z" style="fill:#37474f"></path><path d="M350.88,230.68a1.51,1.51,0,0,1-1.5-1.49c0-1.94-1.44-3.83-4-5.31-4-2.3-9.82-3.12-15.24-2.14a1.5,1.5,0,0,1-.53-3c6.08-1.1,12.7-.15,17.27,2.49,3.53,2,5.49,4.84,5.51,7.89a1.5,1.5,0,0,1-1.49,1.51Z" style="fill:#37474f"></path><rect x="197.09" y="59.97" width="135.78" height="2.17" style="fill:#EFE3AF"></rect><rect x="197.09" y="59.97" width="135.78" height="2.17" style="fill:#fff;opacity:0.4"></rect><rect x="197.09" y="62.14" width="135.78" height="166.99" style="fill:#EFE3AF"></rect><rect x="197.09" y="62.14" width="135.78" height="166.99" style="fill:#fff;opacity:0.2"></rect><rect x="197.09" y="64.1" width="135.78" height="2.17" style="fill:#f0f0f0"></rect><rect x="197.09" y="66.26" width="135.78" height="166.99" style="fill:#e0e0e0"></rect><rect x="197.09" y="68.22" width="135.78" height="2.17" style="fill:#f0f0f0"></rect><rect x="197.09" y="70.39" width="135.78" height="166.99" style="fill:#e0e0e0"></rect><polygon points="458.47 133.1 457.99 302.26 345.26 237.17 345.74 68.01 458.47 133.1" style="fill:#EFE3AF"></polygon><polygon points="345.74 68.01 347.31 66.72 460.41 132.02 458.47 133.1 345.74 68.01" style="fill:#EFE3AF"></polygon><polygon points="458.05 302.26 459.98 301.17 460.41 132.02 458.47 133.1 458.05 302.26" style="fill:#EFE3AF"></polygon><g style="opacity:0.2"><polygon points="458.47 133.1 457.99 302.26 345.26 237.17 345.74 68.01 458.47 133.1" style="fill:#fff"></polygon></g><polygon points="345.74 68.01 347.31 66.72 460.41 132.02 458.47 133.1 345.74 68.01" style="fill:#fff;opacity:0.4"></polygon><polygon points="454.97 135.27 454.49 304.42 341.76 239.34 342.24 70.18 454.97 135.27" style="fill:#e0e0e0"></polygon><path d="M361.64,159.58l73.27,42.3.18-62.81-73.27-42.3ZM367.9,156l.13-48.51,5.14,3,55.67,32.14-.12,42.54,0,6Z" style="fill:#fafafa"></path><path d="M361.64,235.54l73.27,42.3.18-62.82-73.27-42.3ZM367.9,232l.13-48.5,5.14,3,55.67,32.14-.12,42.54,0,6Z" style="fill:#fafafa"></path><polygon points="342.24 70.18 343.81 68.88 456.91 134.18 454.97 135.27 342.24 70.18" style="fill:#fafafa"></polygon><polygon points="454.55 304.42 456.48 303.34 456.91 134.18 454.97 135.27 454.55 304.42" style="fill:#f0f0f0"></polygon><polygon points="451.47 137.44 450.99 306.59 338.26 241.5 338.74 72.35 451.47 137.44" style="fill:#e0e0e0"></polygon><path d="M358.14,161.75l73.27,42.3.18-62.81-73.27-42.3Zm6.26-3.56.13-48.51,5.14,3,55.67,32.14-.12,42.54,0,6Z" style="fill:#fafafa"></path><path d="M358.14,237.7,431.41,280l.18-62.81-73.27-42.3Zm6.26-3.56.13-48.51,5.14,3,55.67,32.14-.12,42.54,0,6Z" style="fill:#fafafa"></path><polygon points="338.74 72.35 340.31 71.05 453.41 136.35 451.47 137.44 338.74 72.35" style="fill:#fafafa"></polygon><polygon points="451.05 306.59 452.98 305.5 453.41 136.35 451.47 137.44 451.05 306.59" style="fill:#f0f0f0"></polygon><polygon points="447.97 139.6 447.49 308.76 334.76 243.67 335.24 74.51 447.97 139.6" style="fill:#e0e0e0"></polygon><path d="M360.14,167.11l73.27,42.3.18-62.82-73.27-42.3Zm6.26-3.57.13-48.5,5.14,3,55.67,32.14-.12,42.55,0,6Z" style="fill:#fafafa"></path><g style="isolation:isolate"><polygon points="386.3 137.19 370.34 149.76 370.31 162.04 423.39 192.69 423.43 180.41 413.31 160.32 404.23 167.37 407.44 177.35 402.77 168.49 386.3 137.19" style="fill:#fafafa"></polygon><path d="M403.74,143.38c-2.5-1.44-4.53-.28-4.54,2.59a9.93,9.93,0,0,0,4.51,7.81c2.5,1.44,4.53.28,4.54-2.59A9.93,9.93,0,0,0,403.74,143.38Z" style="fill:#fafafa"></path></g><path d="M360.14,243.06l73.27,42.3.18-62.82-73.27-42.3Zm6.26-3.57.13-48.5,5.14,3,55.67,32.14-.12,42.55,0,6Z" style="fill:#fafafa"></path><g style="isolation:isolate"><polygon points="386.3 213.15 370.34 225.71 370.31 237.99 423.39 268.64 423.43 256.36 413.31 236.27 404.23 243.32 407.44 253.3 402.77 244.44 386.3 213.15" style="fill:#fafafa"></polygon><path d="M403.74,219.33c-2.5-1.44-4.53-.28-4.54,2.59a9.93,9.93,0,0,0,4.51,7.81c2.5,1.44,4.53.28,4.54-2.59A9.94,9.94,0,0,0,403.74,219.33Z" style="fill:#fafafa"></path></g><polygon points="335.24 74.51 336.81 73.22 449.91 138.52 447.97 139.6 335.24 74.51" style="fill:#fafafa"></polygon><polygon points="447.55 308.76 449.48 307.67 449.91 138.52 447.97 139.6 447.55 308.76" style="fill:#f0f0f0"></polygon><rect x="197.09" y="72.35" width="135.78" height="2.17" style="fill:#f0f0f0"></rect><rect x="197.09" y="74.51" width="135.78" height="166.99" style="fill:#e0e0e0"></rect><path d="M334.86,84.26a25,25,0,0,1-12.22-2.93,1.5,1.5,0,1,1,1.5-2.59c4.18,2.41,10.49,3.18,16.06,2a1.5,1.5,0,0,1,.64,2.93A27.79,27.79,0,0,1,334.86,84.26Z" style="fill:#455a64"></path><path d="M334.86,94.65a25,25,0,0,1-12.22-2.93,1.5,1.5,0,1,1,1.5-2.6c4.18,2.41,10.49,3.19,16.06,2A1.48,1.48,0,0,1,342,92.23,1.5,1.5,0,0,1,340.84,94,28.44,28.44,0,0,1,334.86,94.65Z" style="fill:#455a64"></path><path d="M334.86,105a25,25,0,0,1-12.22-2.93,1.5,1.5,0,1,1,1.5-2.6c4.18,2.42,10.49,3.19,16.06,2a1.5,1.5,0,0,1,.64,2.93A28.44,28.44,0,0,1,334.86,105Z" style="fill:#455a64"></path><path d="M334.86,115.41a25,25,0,0,1-12.22-2.93,1.5,1.5,0,1,1,1.5-2.59c4.18,2.41,10.49,3.18,16.06,2a1.5,1.5,0,0,1,.64,2.93A27.79,27.79,0,0,1,334.86,115.41Z" style="fill:#455a64"></path><path d="M334.86,125.8a25,25,0,0,1-12.22-2.93,1.5,1.5,0,1,1,1.5-2.6c4.18,2.41,10.49,3.19,16.06,2a1.48,1.48,0,0,1,1.78,1.14,1.5,1.5,0,0,1-1.14,1.79A28.44,28.44,0,0,1,334.86,125.8Z" style="fill:#455a64"></path><path d="M334.86,136.18a25,25,0,0,1-12.22-2.93,1.5,1.5,0,1,1,1.5-2.6c4.18,2.42,10.49,3.19,16.06,2a1.5,1.5,0,0,1,.64,2.93A28.44,28.44,0,0,1,334.86,136.18Z" style="fill:#455a64"></path><path d="M334.86,146.56a25,25,0,0,1-12.22-2.93,1.5,1.5,0,1,1,1.5-2.59c4.18,2.41,10.49,3.18,16.06,2a1.5,1.5,0,0,1,.64,2.93A27.79,27.79,0,0,1,334.86,146.56Z" style="fill:#455a64"></path><path d="M334.86,157A25,25,0,0,1,322.64,154a1.5,1.5,0,1,1,1.5-2.6c4.18,2.41,10.49,3.19,16.06,2a1.48,1.48,0,0,1,1.78,1.14,1.5,1.5,0,0,1-1.14,1.79A28.44,28.44,0,0,1,334.86,157Z" style="fill:#455a64"></path><path d="M334.86,167.33a25,25,0,0,1-12.22-2.93,1.5,1.5,0,1,1,1.5-2.6c4.18,2.42,10.49,3.19,16.06,2a1.5,1.5,0,0,1,.64,2.93A28.44,28.44,0,0,1,334.86,167.33Z" style="fill:#455a64"></path><path d="M334.86,177.71a25,25,0,0,1-12.22-2.93,1.5,1.5,0,1,1,1.5-2.59c4.18,2.41,10.49,3.18,16.06,2a1.5,1.5,0,0,1,.64,2.93A27.79,27.79,0,0,1,334.86,177.71Z" style="fill:#455a64"></path><path d="M334.86,188.1a25,25,0,0,1-12.22-2.93,1.5,1.5,0,0,1,1.5-2.6c4.18,2.41,10.49,3.19,16.06,2a1.48,1.48,0,0,1,1.78,1.14,1.5,1.5,0,0,1-1.14,1.79A28.44,28.44,0,0,1,334.86,188.1Z" style="fill:#455a64"></path><path d="M334.86,198.48a25,25,0,0,1-12.22-2.93,1.5,1.5,0,0,1,1.5-2.6c4.18,2.42,10.49,3.19,16.06,2a1.5,1.5,0,0,1,.64,2.93A28.44,28.44,0,0,1,334.86,198.48Z" style="fill:#455a64"></path><path d="M334.86,208.86a25,25,0,0,1-12.22-2.93,1.5,1.5,0,1,1,1.5-2.59c4.18,2.41,10.49,3.18,16.06,2a1.5,1.5,0,0,1,.64,2.93A27.79,27.79,0,0,1,334.86,208.86Z" style="fill:#455a64"></path><path d="M334.86,219.25a25,25,0,0,1-12.22-2.93,1.5,1.5,0,0,1,1.5-2.6c4.18,2.41,10.49,3.19,16.06,2a1.48,1.48,0,0,1,1.78,1.14,1.5,1.5,0,0,1-1.14,1.79A28.44,28.44,0,0,1,334.86,219.25Z" style="fill:#455a64"></path><path d="M334.86,229.63a25,25,0,0,1-12.22-2.93,1.5,1.5,0,0,1,1.5-2.6c4.18,2.42,10.49,3.19,16.06,2a1.48,1.48,0,0,1,1.78,1.14,1.5,1.5,0,0,1-1.14,1.79A28.44,28.44,0,0,1,334.86,229.63Z" style="fill:#455a64"></path><path d="M334.86,240a25,25,0,0,1-12.22-2.93,1.5,1.5,0,1,1,1.5-2.59c4.18,2.41,10.49,3.18,16.06,2a1.5,1.5,0,0,1,.64,2.93A27.79,27.79,0,0,1,334.86,240Z" style="fill:#455a64"></path><path d="M215.6,91.72v58.73h90.52V91.72Zm83.89,52.1H222.22V98.34h77.27Z" style="fill:#fafafa"></path><polygon points="279.76 115.16 269.38 125.54 273.13 132.66 247.78 107.31 226.01 129.07 226.01 140.04 295.71 140.04 295.71 131.11 279.76 115.16" style="fill:#fafafa"></polygon><path d="M272.64,110.3a5.24,5.24,0,1,1-5.23-5.24A5.23,5.23,0,0,1,272.64,110.3Z" style="fill:#fafafa"></path><path d="M215.6,164v58.73h90.52V164Zm83.89,52.11H222.22V170.62h77.27Z" style="fill:#fafafa"></path><polygon points="279.76 187.44 269.38 197.82 273.13 204.93 247.78 179.58 226.01 201.35 226.01 212.32 295.71 212.32 295.71 203.39 279.76 187.44" style="fill:#fafafa"></polygon><path d="M272.64,182.57a5.24,5.24,0,1,1-5.23-5.24A5.23,5.23,0,0,1,272.64,182.57Z" style="fill:#fafafa"></path><polygon points="387.8 129.68 371.84 142.24 371.81 154.52 424.89 185.16 424.93 172.89 414.81 152.79 405.73 159.85 408.94 169.83 404.27 160.97 387.8 129.68" style="fill:#fafafa"></polygon><path d="M405.24,135.86c-2.5-1.44-4.53-.28-4.54,2.59a9.93,9.93,0,0,0,4.51,7.81c2.5,1.44,4.53.28,4.54-2.59A9.93,9.93,0,0,0,405.24,135.86Z" style="fill:#fafafa"></path><polygon points="387.8 205.63 371.84 218.19 371.81 230.47 424.89 261.12 424.93 248.84 414.81 228.75 405.73 235.8 408.94 245.78 404.27 236.92 387.8 205.63" style="fill:#fafafa"></polygon><path d="M405.24,211.81c-2.5-1.44-4.53-.28-4.54,2.59a9.93,9.93,0,0,0,4.51,7.81c2.5,1.44,4.53.28,4.54-2.59A9.93,9.93,0,0,0,405.24,211.81Z" style="fill:#fafafa"></path><polygon points="384.3 131.84 368.34 144.41 368.31 156.68 421.39 187.33 421.43 175.05 411.31 154.96 402.23 162.01 405.44 171.99 400.77 163.13 384.3 131.84" style="fill:#fafafa"></polygon><path d="M401.74,138c-2.5-1.44-4.53-.29-4.54,2.59a9.94,9.94,0,0,0,4.51,7.81c2.5,1.44,4.53.28,4.54-2.59A9.93,9.93,0,0,0,401.74,138Z" style="fill:#fafafa"></path><polygon points="384.3 207.79 368.34 220.36 368.31 232.63 421.39 263.28 421.43 251 411.31 230.91 402.23 237.97 405.44 247.94 400.77 239.08 384.3 207.79" style="fill:#fafafa"></polygon><path d="M401.74,214c-2.5-1.44-4.53-.29-4.54,2.59a9.94,9.94,0,0,0,4.51,7.81c2.5,1.44,4.53.28,4.54-2.59A9.93,9.93,0,0,0,401.74,214Z" style="fill:#fafafa"></path></g><g id="freepik--side-table--inject-221"><polygon points="346.24 277.9 348.9 279.45 348.89 276.37 346.24 277.9" style="fill:#e6e6e6"></polygon><polygon points="348.82 261.5 348.82 261.46 348.82 261.46 348.82 261.46 348.82 261.5" style="fill:#787878"></polygon><rect x="335.89" y="254" height="29.86" style="fill:#cfcfcf"></rect><polygon points="348.78 246.54 322.92 261.47 322.92 261.47 348.78 246.54" style="fill:#cfcfcf"></polygon><path d="M348.89,276.37v3.08l2.77-1.6-.11-36.13-31.44,18.15.1,36.13,2.77-1.59v-3.08l23.26-13.43Zm-26-14.9h0l25.86-14.93,0,11.72L323,273.19Zm0,14.92h0l25.86-14.93h0v0l0,11.68L323,288.11Z" style="fill:#EFE3AF"></path><polygon points="348.86 273.18 348.82 261.5 348.82 261.46 322.96 276.39 322.96 276.39 323 288.11 348.86 273.18" style="fill:#EFE3AF"></polygon><polygon points="348.81 258.26 348.78 246.54 322.92 261.47 322.92 261.47 322.95 273.19 348.81 258.26" style="fill:#EFE3AF"></polygon><polygon points="320.12 259.88 292.67 243.92 292.77 280.05 320.22 296 320.12 259.88" style="fill:#EFE3AF"></polygon><polygon points="320.12 259.88 351.56 241.72 324.11 225.77 292.67 243.92 320.12 259.88" style="fill:#EFE3AF"></polygon><polygon points="346.24 277.9 348.9 279.45 348.89 276.37 346.24 277.9" style="fill:#e6e6e6"></polygon><polygon points="348.82 261.5 348.82 261.46 348.82 261.46 348.82 261.46 348.82 261.5" style="fill:#787878"></polygon><rect x="335.89" y="254" height="29.86" style="fill:#cfcfcf"></rect><polygon points="348.78 246.54 322.92 261.47 322.92 261.47 348.78 246.54" style="fill:#cfcfcf"></polygon><path d="M348.89,276.37v3.08l2.77-1.6-.11-36.13-31.44,18.15.1,36.13,2.77-1.59v-3.08l23.26-13.43Zm-26-14.9h0l25.86-14.93,0,11.72L323,273.19Zm0,14.92h0l25.86-14.93h0v0l0,11.68L323,288.11Z" style="fill:#fff;opacity:0.6000000000000001"></path><polygon points="348.86 273.18 348.82 261.5 348.82 261.46 322.96 276.39 322.96 276.39 323 288.11 348.86 273.18" style="fill:#fff;opacity:0.8"></polygon><polygon points="348.81 258.26 348.78 246.54 322.92 261.47 322.92 261.47 322.95 273.19 348.81 258.26" style="fill:#fff;opacity:0.8"></polygon><polygon points="340.35 255.76 340.34 254.15 331.38 259.32 331.38 259.32 331.4 260.94 340.35 255.76" style="fill:#455a64"></polygon><polygon points="340.35 270.48 340.34 268.86 331.38 274.03 331.38 274.03 331.4 275.65 340.35 270.48" style="fill:#455a64"></polygon><polygon points="320.12 259.88 292.67 243.92 292.77 280.05 320.22 296 320.12 259.88" style="fill:#fff;opacity:0.5"></polygon><polygon points="320.12 259.88 351.56 241.72 324.11 225.77 292.67 243.92 320.12 259.88" style="fill:#fff;opacity:0.8"></polygon><path d="M316.33,240.15a13,13,0,0,1,11.76,0c3.24,1.88,3.22,4.93,0,6.81a13,13,0,0,1-11.76,0C313.05,245.08,313.07,242,316.33,240.15Z" style="opacity:0.05"></path><path d="M313.5,228.31l8.94.26,8.94-.26c.39,6-.79,12.19-2.42,15.19h0a4.05,4.05,0,0,1-1.77,1.8,10.45,10.45,0,0,1-9.52,0,3.91,3.91,0,0,1-1.77-1.84C314.29,240.43,313.12,234.32,313.5,228.31Z" style="fill:#fff"></path><path d="M316.14,224.65c-3.5,2-3.52,5.3,0,7.32a13.94,13.94,0,0,0,12.64,0c3.51-2,3.53-5.3.05-7.32A13.9,13.9,0,0,0,316.14,224.65Z" style="fill:#ebebeb"></path><path d="M317.53,225.45c-2.74,1.58-2.75,4.14,0,5.71a10.85,10.85,0,0,0,9.86,0c2.73-1.57,2.75-4.13,0-5.71A10.85,10.85,0,0,0,317.53,225.45Z" style="fill:#e0e0e0"></path><g style="opacity:0.15"><path d="M317.53,225.45c-2.74,1.58-2.75,4.14,0,5.71a10.85,10.85,0,0,0,9.86,0c2.73-1.57,2.75-4.13,0-5.71A10.85,10.85,0,0,0,317.53,225.45Z"></path></g><path d="M323.19,228.56a5.86,5.86,0,0,1-5.24,1.19,5.48,5.48,0,0,1-3.68-3.71,11.11,11.11,0,0,0,2.87-2,7.3,7.3,0,0,0-4.06.14,4.13,4.13,0,0,1-.31-3.88,7.14,7.14,0,0,1,4.85-.33,6.45,6.45,0,0,0-4.9-1.55,18.78,18.78,0,0,1,1.17-7.52c3.34.17,6.57,1.61,7.66,2.64a12.37,12.37,0,0,1-.37,3.54,2.87,2.87,0,0,0,1.55-2.29c2.08.52,3,1.56,3.3,2.36a8.78,8.78,0,0,1-2,4,4.82,4.82,0,0,0,2.75-2.78C328.74,223,328.37,228.12,323.19,228.56Z" style="fill:#EFE3AF"></path><path d="M323.19,228.56a5.86,5.86,0,0,1-5.24,1.19,5.48,5.48,0,0,1-3.68-3.71,11.11,11.11,0,0,0,2.87-2,7.3,7.3,0,0,0-4.06.14,4.13,4.13,0,0,1-.31-3.88,7.14,7.14,0,0,1,4.85-.33,6.45,6.45,0,0,0-4.9-1.55,18.78,18.78,0,0,1,1.17-7.52c3.34.17,6.57,1.61,7.66,2.64a12.37,12.37,0,0,1-.37,3.54,2.87,2.87,0,0,0,1.55-2.29c2.08.52,3,1.56,3.3,2.36a8.78,8.78,0,0,1-2,4,4.82,4.82,0,0,0,2.75-2.78C328.74,223,328.37,228.12,323.19,228.56Z" style="opacity:0.2"></path><path d="M323.19,228.56a5.86,5.86,0,0,1-5.24,1.19,5.48,5.48,0,0,1-3.68-3.71,11.11,11.11,0,0,0,2.87-2,7.3,7.3,0,0,0-4.06.14,4.13,4.13,0,0,1-.31-3.88,7.14,7.14,0,0,1,4.85-.33,6.45,6.45,0,0,0-4.9-1.55,18.78,18.78,0,0,1,1.17-7.52c3.34.17,6.57,1.61,7.66,2.64a12.37,12.37,0,0,1-.37,3.54,2.87,2.87,0,0,0,1.55-2.29c2.08.52,3,1.56,3.3,2.36a8.78,8.78,0,0,1-2,4,4.82,4.82,0,0,0,2.75-2.78C328.74,223,328.37,228.12,323.19,228.56Z" style="fill:#fff;opacity:0.30000000000000004"></path><path d="M323.31,229.06h0a.18.18,0,0,0,.18-.2c-.32-4.21-2.73-11.16-8.47-16.89a.19.19,0,0,0-.27.27c5.66,5.66,8,12.5,8.35,16.65A.2.2,0,0,0,323.31,229.06Z" style="fill:#f5f5f5"></path><path d="M321.73,230.81a5.47,5.47,0,0,0,8.56-2.25,9.28,9.28,0,0,1-2.59-1.76,7.46,7.46,0,0,1,3.84.11,3.56,3.56,0,0,0,.54-3.45,7,7,0,0,0-4.58-.27,6.72,6.72,0,0,1,4.75-1.41,15.31,15.31,0,0,0-.64-6.72,14.88,14.88,0,0,0-7.42,2.44,10.23,10.23,0,0,0,.13,3.14,2.29,2.29,0,0,1-1.31-2,4.54,4.54,0,0,0-3.24,2.12,6.9,6.9,0,0,0,1.6,3.53,4,4,0,0,1-2.41-2.44C316.89,225.87,316.92,230.43,321.73,230.81Z" style="fill:#EFE3AF"></path><path d="M321.73,230.81a5.47,5.47,0,0,0,8.56-2.25,9.28,9.28,0,0,1-2.59-1.76,7.46,7.46,0,0,1,3.84.11,3.56,3.56,0,0,0,.54-3.45,7,7,0,0,0-4.58-.27,6.72,6.72,0,0,1,4.75-1.41,15.31,15.31,0,0,0-.64-6.72,14.88,14.88,0,0,0-7.42,2.44,10.23,10.23,0,0,0,.13,3.14,2.29,2.29,0,0,1-1.31-2,4.54,4.54,0,0,0-3.24,2.12,6.9,6.9,0,0,0,1.6,3.53,4,4,0,0,1-2.41-2.44C316.89,225.87,316.92,230.43,321.73,230.81Z" style="fill:#fff;opacity:0.30000000000000004"></path><path d="M321.6,231.27a.19.19,0,0,0,.19-.16c.55-3.67,3.21-9.75,8.92-14.83a.19.19,0,1,0-.26-.29c-5.78,5.15-8.48,11.33-9,15.06a.2.2,0,0,0,.16.22Z" style="fill:#fff"></path></g><g id="freepik--Plant--inject-221"><path d="M93.11,312.42l-15,.44-15-.44c-.64,10.14,1.34,20.48,4.07,25.53h0a6.86,6.86,0,0,0,3,3c4.44,2.56,11.6,2.56,16,0a6.71,6.71,0,0,0,3-3.11C91.8,332.8,93.75,322.51,93.11,312.42Z" style="fill:#fff"></path><path d="M88.68,306.26c5.88,3.4,5.91,8.91.06,12.31s-15.35,3.4-21.24,0-5.92-8.91-.07-12.31S82.79,302.87,88.68,306.26Z" style="fill:#ebebeb"></path><path d="M86.35,307.62c4.59,2.65,4.61,6.95.05,9.6s-12,2.65-16.57,0-4.62-7-.06-9.6S81.76,305,86.35,307.62Z" style="fill:#e0e0e0"></path><g style="opacity:0.15"><path d="M86.35,307.62c4.59,2.65,4.61,6.95.05,9.6s-12,2.65-16.57,0-4.62-7-.06-9.6S81.76,305,86.35,307.62Z"></path></g><path d="M102.79,248.31c-33.86,11.09-34.16,33.74-26.53,49.86,1.92,3.27,7.75,5,12.82-15l-8.89,1.14L90.55,279l2.69-8-8.64.64,11-4.62A162.16,162.16,0,0,1,102.79,248.31Z" style="fill:#EFE3AF"></path><path d="M102.79,248.31c-33.86,11.09-34.16,33.74-26.53,49.86,1.92,3.27,7.75,5,12.82-15l-8.89,1.14L90.55,279l2.69-8-8.64.64,11-4.62A162.16,162.16,0,0,1,102.79,248.31Z" style="opacity:0.2"></path><path d="M102.79,248.31c-33.86,11.09-34.16,33.74-26.53,49.86,1.92,3.27,7.75,5,12.82-15l-8.89,1.14L90.55,279l2.69-8-8.64.64,11-4.62A162.16,162.16,0,0,1,102.79,248.31Z" style="fill:#fff;opacity:0.2"></path><path d="M93.21,254c-17.85,13.55-19.46,29.08-14.42,45.3C77,285,75.08,270.56,93.21,254Z" style="fill:#fff"></path><path d="M45.45,271.32c33.37,4.7,37.42,25.74,33,42-1.25,3.36-6.39,6-14.44-11.88l8.47-.41L62,297.89l-3.85-7.05,8.16-.84-11-2.47A155.14,155.14,0,0,0,45.45,271.32Z" style="fill:#EFE3AF"></path><path d="M45.45,271.32c33.37,4.7,37.42,25.74,33,42-1.25,3.36-6.39,6-14.44-11.88l8.47-.41L62,297.89l-3.85-7.05,8.16-.84-11-2.47A155.14,155.14,0,0,0,45.45,271.32Z" style="fill:#fff;opacity:0.2"></path><path d="M45.45,271.32c33.37,4.7,37.42,25.74,33,42-1.25,3.36-6.39,6-14.44-11.88l8.47-.41L62,297.89l-3.85-7.05,8.16-.84-11-2.47A155.14,155.14,0,0,0,45.45,271.32Z" style="opacity:0.1"></path><path d="M55.3,275c18.88,9.66,23,23.86,21,39.8C75.55,301.2,75,287.43,55.3,275Z" style="fill:#fff"></path><path d="M112.55,279.2c-30.6.5-36.6,19-34.44,34.19.76,3.17,5.09,6.09,14.35-9.09L84.87,303l9.84-1.68L99,295.38l-7.25-1.67,10.17-1A140.78,140.78,0,0,1,112.55,279.2Z" style="fill:#EFE3AF"></path><path d="M103.26,281.42c-18.1,6.59-23.37,18.93-23.35,33.52C82.08,302.77,84.16,290.43,103.26,281.42Z" style="fill:#fff"></path><path d="M112.55,279.2c-30.6.5-36.6,19-34.44,34.19.76,3.17,5.09,6.09,14.35-9.09L84.87,303l9.84-1.68L99,295.38l-7.25-1.67,10.17-1A140.78,140.78,0,0,1,112.55,279.2Z" style="fill:#fff;opacity:0.2"></path></g><g id="freepik--Characters--inject-221"><path d="M311.4,266.39a.9.9,0,0,1,0,.16v-.17Z" style="fill:#37474f"></path><path d="M253.44,178a7.75,7.75,0,0,0-3.8-5.53l-9.2-5.28a3.84,3.84,0,0,0-4.08.14h0l-126.9,75.47a3.9,3.9,0,0,0-1.24.73h0a3.87,3.87,0,0,0-1.32,2.92v86.07a7.8,7.8,0,0,0,3.91,6.76l15,8.63L253.55,272v-92.8A7.3,7.3,0,0,0,253.44,178Z" style="fill:#455a64"></path><polygon points="108.22 243.52 108.22 243.52 108.22 243.52 108.22 243.52" style="fill:#fff;opacity:0.2"></polygon><path d="M121.93,248.34l-9.19-5.28a3.82,3.82,0,0,0-3.28-.27,3.9,3.9,0,0,0-1.24.73h0a3.87,3.87,0,0,0-1.32,2.92v86.07a7.8,7.8,0,0,0,3.91,6.76l15,8.63V255.1A7.78,7.78,0,0,0,121.93,248.34Z" style="opacity:0.2"></path><path d="M125.21,252a7.78,7.78,0,0,1,.64,3.07v92.8L253.55,272v-92.8a7.3,7.3,0,0,0-.11-1.23Z" style="opacity:0.1"></path><path d="M313.09,246a7.7,7.7,0,0,0-2.59-2.45l-53.39-30.66a3.88,3.88,0,0,0-3.82,0h0l-.16.09-13.77,8a3.86,3.86,0,0,0-2.13,3.46v52.7a7.8,7.8,0,0,0,3.92,6.76l53.39,30.65a3.88,3.88,0,0,0,4.09-.13h0l13.69-8,.31-.19,0,0h0a3.84,3.84,0,0,0,1.75-3.24v-52.7A7.72,7.72,0,0,0,313.09,246ZM299,254Z" style="fill:#455a64"></path><path d="M300.38,311.14v-52.7a7.8,7.8,0,0,0-3.91-6.76L243.07,221a3.91,3.91,0,0,0-5.84,3.38v52.7a7.8,7.8,0,0,0,3.92,6.76l53.39,30.65a3.9,3.9,0,0,0,5.84-3.38Z" style="opacity:0.2"></path><path d="M299,254a7.77,7.77,0,0,1,1.4,4.43v52.7a3.86,3.86,0,0,1-1.75,3.25h0l13.69-8,.31-.19,0,0h0a3.84,3.84,0,0,0,1.75-3.24v-52.7a7.72,7.72,0,0,0-1.32-4.31Z" style="opacity:0.1"></path><path d="M297.13,279.34l-99,57.15a6,6,0,0,1-5.52,0l-23.42-13.6L141,339.15c-1.53.88-1.55,2.31,0,3.19l51.61,30a6.1,6.1,0,0,0,5.52,0l99-57.15a2,2,0,0,0,1.15-1.61h0V277.74A1.94,1.94,0,0,1,297.13,279.34Z" style="fill:#455a64"></path><path d="M297.13,279.34l-99,57.15a6,6,0,0,1-5.52,0l-23.42-13.6L141,339.15c-1.53.88-1.55,2.31,0,3.19l51.61,30a6.1,6.1,0,0,0,5.52,0l99-57.15a2,2,0,0,0,1.15-1.61h0V277.74A1.94,1.94,0,0,1,297.13,279.34Z" style="opacity:0.1"></path><path d="M297.15,276.15l-51.61-30a6.11,6.11,0,0,0-5.51,0l-99,57.16c-1.53.88-1.55,2.31,0,3.19l28.19,16.39,23.42,13.6a6,6,0,0,0,5.52,0l99-57.15a1.94,1.94,0,0,0,1.15-1.6s0-.08,0-.12A2,2,0,0,0,297.15,276.15Z" style="fill:#455a64"></path><g style="opacity:0.30000000000000004"><path d="M141,303.31c-1.53.88-1.55,2.31,0,3.19l51.61,30a6,6,0,0,0,5.52,0l99-57.15c1.53-.88,1.54-2.31,0-3.19l-51.61-30a6.11,6.11,0,0,0-5.51,0Z"></path></g><path d="M274.88,290.71c9.24,2.6,16.75-5.27,14.51-14.13C281.17,271.54,269.22,282.14,274.88,290.71Z" style="fill:#EFE3AF"></path><path d="M274.88,290.71c9.24,2.6,16.75-5.27,14.51-14.13C281.17,271.54,269.22,282.14,274.88,290.71Z" style="opacity:0.5"></path><path d="M276.26,268.93c10.94,5.49,15.28,9.49,17,13.38,1.27,2.93,0,7.28-.88,12.74L290,311.23c-4,1.82-8.83-.07-9.55-.91-2.46-8.32-3-17.14-1.17-20.73-18.12-5.84-23.08-15.4-23.38-18.32Z" style="fill:#ffa8a7"></path><path d="M282.4,303.28a10.36,10.36,0,0,1-3.8-1.56,58.15,58.15,0,0,0,1.85,8.6c.72.84,5.53,2.73,9.55.91l1.16-8A19.77,19.77,0,0,1,282.4,303.28Z" style="fill:#fff"></path><path d="M292.11,329a13.61,13.61,0,0,1-7.56-4.93c-1-1.29-1.77-2.78-3.08-3.74s-3.2-1.45-3.81-3c0-.16,0-.3,0-.45a8.34,8.34,0,0,0,0,1.78c.59,1.5,2.43,2,3.73,2.91a17,17,0,0,1,3,3.66,13.25,13.25,0,0,0,7.39,4.82c2.92.7,6.89,1.35,8.74-1a3.51,3.51,0,0,0,.58-1.18.56.56,0,0,1-.05.08C299.16,330.35,295.09,329.69,292.11,329Z" style="fill:#e6e6e6"></path><path d="M287.42,324a6.15,6.15,0,0,1,3.72-2.66,13.16,13.16,0,0,1,7.23-.14,18.8,18.8,0,0,1-6.77-7.71v-2a1.53,1.53,0,0,0-1-1.44,16,16,0,0,0-5.71-.91,1.3,1.3,0,0,0-1.24,1.31v.81a6.86,6.86,0,0,1-3.16-1l-.45-1.63c-.39.05-.79.44-.89,2.17s-1.74,2.7-1.49,6c0,.15,0,.29,0,.45.61,1.53,2.49,2,3.81,3s2.09,2.45,3.08,3.74a13.64,13.64,0,0,0,2.32,2.36A5.06,5.06,0,0,1,287.42,324Z" style="fill:#EFE3AF"></path><path d="M287.42,324a6.15,6.15,0,0,1,3.72-2.66,13.16,13.16,0,0,1,7.23-.14,18.8,18.8,0,0,1-6.77-7.71v-2a1.53,1.53,0,0,0-1-1.44,16,16,0,0,0-5.71-.91,1.3,1.3,0,0,0-1.24,1.31v.81a6.86,6.86,0,0,1-3.16-1l-.45-1.63c-.39.05-.79.44-.89,2.17s-1.74,2.7-1.49,6c0,.15,0,.29,0,.45.61,1.53,2.49,2,3.81,3s2.09,2.45,3.08,3.74a13.64,13.64,0,0,0,2.32,2.36A5.06,5.06,0,0,1,287.42,324Z" style="opacity:0.2"></path><path d="M287.42,324a6.15,6.15,0,0,1,3.72-2.66,13.16,13.16,0,0,1,7.23-.14,18.8,18.8,0,0,1-6.77-7.71v-2a1.53,1.53,0,0,0-1-1.44,16,16,0,0,0-5.71-.91,1.3,1.3,0,0,0-1.24,1.31v.81a6.86,6.86,0,0,1-3.16-1l-.45-1.63c-.39.05-.79.44-.89,2.17s-1.74,2.7-1.49,6c0,.15,0,.29,0,.45.61,1.53,2.49,2,3.81,3s2.09,2.45,3.08,3.74a13.64,13.64,0,0,0,2.32,2.36A5.06,5.06,0,0,1,287.42,324Z" style="fill:#fff;opacity:0.1"></path><path d="M301.09,323.39a9.45,9.45,0,0,0-2.46-2l-.26-.19a13.16,13.16,0,0,0-7.23.14,6.15,6.15,0,0,0-3.72,2.66,5.06,5.06,0,0,0-.55,2.36,13.59,13.59,0,0,0,5.24,2.57c3,.72,7.05,1.38,8.94-1a.56.56,0,0,0,.05-.08A3.86,3.86,0,0,0,301.09,323.39Z" style="fill:#fff"></path><path d="M274.88,290.71a9.57,9.57,0,0,1,1.47-8.81,14.66,14.66,0,0,1,7.59-5.1,8.64,8.64,0,0,1,5.45-.22c-2.87-3.24-8.36-6-12.2-8l-5.05-1.87-18.65-3.24C254.46,278.66,255,279.47,274.88,290.71Z" style="fill:#EFE3AF"></path><path d="M274.88,290.71a9.57,9.57,0,0,1,1.47-8.81,14.66,14.66,0,0,1,7.59-5.1,8.64,8.64,0,0,1,5.45-.22c-2.87-3.24-8.36-6-12.2-8l-5.05-1.87-18.65-3.24C254.46,278.66,255,279.47,274.88,290.71Z" style="opacity:0.2"></path><path d="M274.88,290.71a9.57,9.57,0,0,1,1.47-8.81,14.66,14.66,0,0,1,7.59-5.1,8.64,8.64,0,0,1,5.45-.22c-2.87-3.24-8.36-6-12.2-8l-5.05-1.87-18.65-3.24C254.46,278.66,255,279.47,274.88,290.71Z" style="fill:#fff;opacity:0.1"></path><path d="M265.61,277a11.24,11.24,0,0,1,3.19-3.36,15,15,0,0,0-7.73,4.13,7.32,7.32,0,0,0-1.71,3.19c3.05,2.67,7.84,5.45,15.52,9.8a8.85,8.85,0,0,1-.1-5.64A43.79,43.79,0,0,0,265.61,277Z" style="opacity:0.2"></path><path d="M257.1,298.5c9.24,2.61,16.74-5.27,14.51-14.12C263.39,279.34,251.43,289.94,257.1,298.5Z" style="fill:#EFE3AF"></path><path d="M257.1,298.5c9.24,2.61,16.74-5.27,14.51-14.12C263.39,279.34,251.43,289.94,257.1,298.5Z" style="opacity:0.5"></path><path d="M258.48,276.73c10.93,5.49,15.27,9.49,16.95,13.38,1.27,2.93,0,7.28-.87,12.74L272.22,319c-4,1.82-8.84-.06-9.55-.91-2.47-8.31-3.05-17.13-1.17-20.72-18.13-5.85-23.09-15.41-23.39-18.32Z" style="fill:#ffa8a7"></path><path d="M264.61,311.08a10.35,10.35,0,0,1-3.8-1.57,57.94,57.94,0,0,0,1.86,8.6c.71.85,5.52,2.73,9.55.91l1.16-8A20.12,20.12,0,0,1,264.61,311.08Z" style="fill:#fff"></path><path d="M274.32,336.77a13.67,13.67,0,0,1-7.56-4.93c-1-1.29-1.77-2.79-3.07-3.75s-3.21-1.45-3.82-3c0-.16,0-.3,0-.45a9.06,9.06,0,0,0,0,1.78c.59,1.49,2.44,2,3.73,2.91a16.66,16.66,0,0,1,3,3.66,13.39,13.39,0,0,0,7.39,4.82c2.92.7,6.9,1.35,8.74-1a3.63,3.63,0,0,0,.59-1.18l-.06.09C281.38,338.15,277.31,337.49,274.32,336.77Z" style="fill:#e6e6e6"></path><path d="M269.63,331.83a6.2,6.2,0,0,1,3.72-2.65,13.16,13.16,0,0,1,7.23-.14,18.87,18.87,0,0,1-6.77-7.71v-2a1.54,1.54,0,0,0-1-1.45,16.12,16.12,0,0,0-5.72-.9,1.29,1.29,0,0,0-1.24,1.31v.81a6.75,6.75,0,0,1-3.15-1l-.46-1.62c-.38,0-.78.44-.88,2.17s-1.75,2.69-1.5,6c0,.15,0,.29,0,.45.61,1.52,2.49,2,3.82,3s2.08,2.46,3.07,3.75a13.34,13.34,0,0,0,2.33,2.36A5.06,5.06,0,0,1,269.63,331.83Z" style="fill:#EFE3AF"></path><path d="M269.63,331.83a6.2,6.2,0,0,1,3.72-2.65,13.16,13.16,0,0,1,7.23-.14,18.87,18.87,0,0,1-6.77-7.71v-2a1.54,1.54,0,0,0-1-1.45,16.12,16.12,0,0,0-5.72-.9,1.29,1.29,0,0,0-1.24,1.31v.81a6.75,6.75,0,0,1-3.15-1l-.46-1.62c-.38,0-.78.44-.88,2.17s-1.75,2.69-1.5,6c0,.15,0,.29,0,.45.61,1.52,2.49,2,3.82,3s2.08,2.46,3.07,3.75a13.34,13.34,0,0,0,2.33,2.36A5.06,5.06,0,0,1,269.63,331.83Z" style="opacity:0.2"></path><path d="M269.63,331.83a6.2,6.2,0,0,1,3.72-2.65,13.16,13.16,0,0,1,7.23-.14,18.87,18.87,0,0,1-6.77-7.71v-2a1.54,1.54,0,0,0-1-1.45,16.12,16.12,0,0,0-5.72-.9,1.29,1.29,0,0,0-1.24,1.31v.81a6.75,6.75,0,0,1-3.15-1l-.46-1.62c-.38,0-.78.44-.88,2.17s-1.75,2.69-1.5,6c0,.15,0,.29,0,.45.61,1.52,2.49,2,3.82,3s2.08,2.46,3.07,3.75a13.34,13.34,0,0,0,2.33,2.36A5.06,5.06,0,0,1,269.63,331.83Z" style="fill:#fff;opacity:0.1"></path><path d="M283.3,331.19a9.16,9.16,0,0,0-2.45-2l-.27-.19a13.16,13.16,0,0,0-7.23.14,6.2,6.2,0,0,0-3.72,2.65,5.06,5.06,0,0,0-.54,2.37,13.69,13.69,0,0,0,5.23,2.57c3,.72,7.06,1.38,8.94-1l.06-.09A3.85,3.85,0,0,0,283.3,331.19Z" style="fill:#fff"></path><path d="M257.1,298.5a9.53,9.53,0,0,1,1.46-8.8,14.69,14.69,0,0,1,7.6-5.1,8.64,8.64,0,0,1,5.45-.22,35.53,35.53,0,0,0-10-8.11l-2.41-5.19-23.45.19C236.67,286.46,237.23,287.27,257.1,298.5Z" style="fill:#EFE3AF"></path><path d="M257.1,298.5a9.53,9.53,0,0,1,1.46-8.8,14.69,14.69,0,0,1,7.6-5.1,8.64,8.64,0,0,1,5.45-.22,35.53,35.53,0,0,0-10-8.11l-2.41-5.19-23.45.19C236.67,286.46,237.23,287.27,257.1,298.5Z" style="opacity:0.2"></path><path d="M257.1,298.5a9.53,9.53,0,0,1,1.46-8.8,14.69,14.69,0,0,1,7.6-5.1,8.64,8.64,0,0,1,5.45-.22,35.53,35.53,0,0,0-10-8.11l-2.41-5.19-23.45.19C236.67,286.46,237.23,287.27,257.1,298.5Z" style="fill:#fff;opacity:0.1"></path><path d="M272.44,238.37l5.5,11.42,9.05-5.08a11.51,11.51,0,0,0,4.92-5.44l.18-.41a11.51,11.51,0,0,1,3.13-4.18,31.51,31.51,0,0,0,2.65-2.5,1,1,0,0,1,1.37-.15h0a1.06,1.06,0,0,1,.37,1.23,12.81,12.81,0,0,1-2.94,4.44l2.11-.06a8.19,8.19,0,0,0,4.57-1.54L306.3,234a1,1,0,0,1,1.56.54h0a1.06,1.06,0,0,1-.07.74l-.37.72a2.76,2.76,0,0,0-.32,1.41h0a7.57,7.57,0,0,1-1.66,4.9l-.33.41a7.46,7.46,0,0,1-3.75,2.5l-1.34.39a19,19,0,0,0-7.42,4.17l-10.79,9.85a6.67,6.67,0,0,1-9.86-1l-10.17-13.82Z" style="fill:#ffa8a7"></path><path d="M233.41,248.45A36.59,36.59,0,0,0,221.52,274c-.07,2.26,1.38,4.46,2.72,6.28a3.37,3.37,0,0,1,.61,1,1.05,1.05,0,0,1-.25,1.09,1.38,1.38,0,0,1-1.3.06,7.24,7.24,0,0,1-2.94-1.91,5.57,5.57,0,0,0,.43,3.25,15,15,0,0,1,1,3,3,3,0,0,1-1,2.87,3.2,3.2,0,0,1-2.59.32,7.66,7.66,0,0,1-5.14-4.93c-1.29-4.54-.12-34.18,11-44.91Z" style="fill:#ffa8a7"></path><path d="M257.8,224.1,259,224a10.21,10.21,0,0,1,10.33,5.78L275.2,242c-6.54,4.43-14.85,2.78-14.85,2.78Z" style="fill:#455a64"></path><path d="M257.8,224.1,259,224a10.21,10.21,0,0,1,10.33,5.78L275.2,242c-6.54,4.43-14.85,2.78-14.85,2.78Z" style="opacity:0.15"></path><path d="M257.8,224.1,259,224a10.21,10.21,0,0,1,10.33,5.78L275.2,242c-6.54,4.43-14.85,2.78-14.85,2.78Z" style="fill:#fff;opacity:0.30000000000000004"></path><path d="M235.39,271.62c0-6.91,0-11.59,0-11.59s-3.07-22.2.39-32.88l22.07-3.05c12.21,7.7,12.13,22.35,13.06,32.65.49,3.1.91,6.46,1.28,10A47.22,47.22,0,0,1,235.39,271.62Z" style="fill:#455a64"></path><path d="M235.39,271.62c0-6.91,0-11.59,0-11.59s-3.07-22.2.39-32.88l22.07-3.05c12.21,7.7,12.13,22.35,13.06,32.65.49,3.1.91,6.46,1.28,10A47.22,47.22,0,0,1,235.39,271.62Z" style="fill:#fff;opacity:0.5"></path><path d="M239.62,226.61l-3.89.54h0a7.14,7.14,0,0,0-4.63,2.64l-8,10.11c1.91,8.69,10.37,9.52,10.37,9.52C242.72,239.89,243.42,231.31,239.62,226.61Z" style="fill:#455a64"></path><path d="M239.62,226.61l-3.89.54h0a7.14,7.14,0,0,0-4.63,2.64l-8,10.11c1.91,8.69,10.37,9.52,10.37,9.52C242.72,239.89,243.42,231.31,239.62,226.61Z" style="fill:#fff;opacity:0.30000000000000004"></path><path d="M254.53,219.5a21.43,21.43,0,0,0,9.93-14.63,8.34,8.34,0,0,0-.38-5,4.42,4.42,0,0,0-4.39-2.42,9.72,9.72,0,0,0-3.49-6.87,13.2,13.2,0,0,0-7.25-2.89,20.82,20.82,0,0,0-7.83.9c-2.51.74-5,1.83-7.62,1.79-1,0-2.08-.22-3.12-.18a3.59,3.59,0,0,0-2.78,1.2,3.34,3.34,0,0,0,0,3.64,10.17,10.17,0,0,0,2.75,2.76,3.21,3.21,0,0,0-1.55,3.31A4.24,4.24,0,0,0,230,203.3a17.77,17.77,0,0,0,2.45,1.74,37.1,37.1,0,0,1,2.11-7.7,9.74,9.74,0,0,0,6.81,2.87,11.61,11.61,0,0,0,7.78-2.28,25.76,25.76,0,0,0,1.77,6.94c1,2.13,2.34,5.23,5.12,4.66Z" style="fill:#263238"></path><path d="M253.63,216.34a24.71,24.71,0,0,0,1,8.29,2.1,2.1,0,0,1,.56,2.25,2.63,2.63,0,0,1-1.64,1.38,5.92,5.92,0,0,1-2.18.16,17.86,17.86,0,0,1-7.58-2.27,14.54,14.54,0,0,0-.49-5C246.51,219.48,250.38,218,253.63,216.34Z" style="fill:#ffa8a7"></path><path d="M247.55,223.76a8.08,8.08,0,0,0,4.34-2.69,9.58,9.58,0,0,0,1.74-4.41v-.32c-3.25,1.68-7.12,3.14-10.37,4.81a13.56,13.56,0,0,1,.48,3A13.18,13.18,0,0,0,247.55,223.76Z" style="opacity:0.2"></path><path d="M261.52,207.74a3,3,0,0,0-3-.15,8.52,8.52,0,0,0-2.46,1.94c-2.78.57-4.14-2.53-5.12-4.66a25.76,25.76,0,0,1-1.77-6.94,11.61,11.61,0,0,1-7.78,2.28,9.74,9.74,0,0,1-6.81-2.87,37.1,37.1,0,0,0-2.11,7.7l-.18,7.46a12.28,12.28,0,0,0,.54,4.87,7.81,7.81,0,0,0,4.24,4.1,16.29,16.29,0,0,0,5.91,1.12h.4A16.71,16.71,0,0,0,251.5,221a9.44,9.44,0,0,0,3.94-3.9,7,7,0,0,0,.82-3,4.07,4.07,0,0,0,4.58,0,4.72,4.72,0,0,0,1.75-4.16A3.17,3.17,0,0,0,261.52,207.74Z" style="fill:#ffa8a7"></path><path d="M236.91,208.18a1.39,1.39,0,1,1-1.39-1.39A1.38,1.38,0,0,1,236.91,208.18Z" style="fill:#37474f"></path><path d="M248.26,208.18a1.39,1.39,0,1,1-1.39-1.39A1.39,1.39,0,0,1,248.26,208.18Z" style="fill:#37474f"></path><polygon points="241.01 208.62 241.01 213.7 237.51 212.44 241.01 208.62" style="fill:#f28f8f"></polygon><path d="M252,211.56a2.51,2.51,0,1,1-2.46-2A2.26,2.26,0,0,1,252,211.56Z" style="fill:#f28f8f;opacity:0.5"></path><ellipse cx="234.13" cy="211.56" rx="2.46" ry="2" style="fill:#f28f8f;opacity:0.5"></ellipse><path d="M241.35,216.29l5.12-1.88a2.85,2.85,0,0,1-.46,2.72,2.75,2.75,0,0,1-2.53,1A2.94,2.94,0,0,1,241.35,216.29Z" style="fill:#f28f8f"></path><path d="M241.35,216.29l5.12-1.88a2.85,2.85,0,0,1-.46,2.72,2.75,2.75,0,0,1-2.53,1A2.94,2.94,0,0,1,241.35,216.29Z" style="opacity:0.30000000000000004"></path><path d="M255.92,259.29c5.45,3,4.4,8.51,1.74,12.21C246.63,271.11,252.28,260.66,255.92,259.29Z" style="fill:#EFE3AF"></path><path d="M255.92,259.29c5.45,3,4.4,8.51,1.74,12.21C246.63,271.11,252.28,260.66,255.92,259.29Z" style="opacity:0.5"></path><path d="M213.17,230.5c11.4,4.17,19,35.88,19,35.88l25.52-6.53,3.36,7.71-26.19,12.55a10.17,10.17,0,0,1-13.18-4l-9.53-16.23Z" style="fill:#ffa8a7"></path><path d="M257.67,259.85a62.48,62.48,0,0,0,8-6,4.73,4.73,0,0,1,2.66-1.22,48.72,48.72,0,0,1,10.93.11,1.69,1.69,0,0,1,1.48,1.65c0,1.15.05,2.36.08,3.55a3.47,3.47,0,0,1-3.49,3.55l-3.37,0c-2.41,3.46-8.72,6.29-13,6.14C254.29,265.91,257.67,259.85,257.67,259.85Z" style="fill:#ffa8a7"></path><path d="M263.16,257.57l2.18-1.33a7.68,7.68,0,0,1,4.15-1.11l2.77.08a1.66,1.66,0,0,1,1.54,2.16l0,0a1.64,1.64,0,0,1-1.61,1.14l-3.42-.08a6.65,6.65,0,0,1-1.76,3.61,6.36,6.36,0,0,1-3.5,1.8,4.91,4.91,0,0,0,4.26-.75,5.18,5.18,0,0,0,2.12-3.91l2.2.09a2.35,2.35,0,0,0,2.33-1.57h0a2.36,2.36,0,0,0-2.15-3.14l-2.34-.09a7.61,7.61,0,0,0-5,1.67Z" style="fill:#f28f8f"></path><path d="M213.17,230.5c11.4,4.17,19,35.88,19,35.88l23.77-7.09s-4.82,4.78,1.74,12.21c-5.79,2.86-22.82,8.61-22.82,8.61a10.17,10.17,0,0,1-13.18-4l-9.53-16.23Z" style="fill:#EFE3AF"></path><path d="M213.17,230.5c11.4,4.17,19,35.88,19,35.88l23.77-7.09s-4.82,4.78,1.74,12.21c-5.79,2.86-22.82,8.61-22.82,8.61a10.17,10.17,0,0,1-13.18-4l-9.53-16.23Z" style="opacity:0.5"></path><path d="M213.17,230.5c11.4,4.17,19,35.88,19,35.88l23.77-7.09s-4.82,4.78,1.74,12.21c-5.79,2.86-22.82,8.61-22.82,8.61a10.17,10.17,0,0,1-13.18-4l-9.53-16.23Z" style="fill:#fff;opacity:0.1"></path><path d="M226.74,390.31c-2.75-1.85-4.79-4.85-7.26-7.05a18.77,18.77,0,0,0-4.92-3.13l-.17-1.5-.55-13h12.38l.19,9.45a6.74,6.74,0,0,0,1.21,3.7c1.17,1.69,2.21,3.28,2.91,4.38a12,12,0,0,0-5.45,2.46A20.22,20.22,0,0,0,226.74,390.31Z" style="fill:#ffa8a7"></path><path d="M213.9,379l.49-.34.17,1.5a18.77,18.77,0,0,1,4.92,3.13c2.47,2.2,4.51,5.2,7.26,7.05a20.22,20.22,0,0,1-1.66-4.66,12,12,0,0,1,5.45-2.46,12.37,12.37,0,0,1,1.72-.17,41.77,41.77,0,0,0,12.07,10.84,2.14,2.14,0,0,1,1.07,1.87v1.21c-2,3.35-5.39,3.9-12.55,3.9s-11.56-8.66-13.24-10.53-4.58-1.89-6.12-4.48C213.48,385.83,213.15,381.24,213.9,379Z" style="fill:#455a64"></path><path d="M259.37,373.91c-2.74-1.84-4.78-4.85-7.26-7a18.07,18.07,0,0,0-4.91-3.13l-.18-1.51-.54-13,12.27-4.87.3,14.31a6.82,6.82,0,0,0,1.2,3.71c1.18,1.68,2.21,3.28,2.92,4.38a11.81,11.81,0,0,0-5.45,2.45A19.58,19.58,0,0,0,259.37,373.91Z" style="fill:#ffa8a7"></path><path d="M246.54,362.58l.48-.35.18,1.51a18.07,18.07,0,0,1,4.91,3.13c2.48,2.19,4.52,5.2,7.26,7a19.58,19.58,0,0,1-1.65-4.66,11.81,11.81,0,0,1,5.45-2.45,12.24,12.24,0,0,1,1.71-.18A41.56,41.56,0,0,0,277,377.46a2.17,2.17,0,0,1,1.07,1.88v1.2c-2,3.36-5.4,3.9-12.56,3.9s-11.56-8.66-13.23-10.53-4.58-1.89-6.12-4.47C246.12,369.44,245.78,364.84,246.54,362.58Z" style="fill:#455a64"></path><path d="M222.64,282.3c17.77,6.53,33.18,12.69,35.35,32.09S260.08,344,260.08,344c-10.94,26.08-46.29,29.38-52.95,19.47,0,0-1.9-25.46-.9-31.44-15.6-8.43-29-16-32.8-19.19C167.63,283.66,209.06,279,222.64,282.3Z" style="fill:#455a64"></path><path d="M222.64,282.3c17.77,6.53,33.18,12.69,35.35,32.09S260.08,344,260.08,344c-10.94,26.08-46.29,29.38-52.95,19.47,0,0-1.9-25.46-.9-31.44-15.6-8.43-29-16-32.8-19.19C167.63,283.66,209.06,279,222.64,282.3Z" style="fill:#455a64;opacity:0.2"></path><g style="opacity:0.30000000000000004"><path d="M222.64,282.3c17.77,6.53,33.18,12.69,35.35,32.09S260.08,344,260.08,344c-10.94,26.08-46.29,29.38-52.95,19.47,0,0-1.9-25.46-.9-31.44-15.6-8.43-29-16-32.8-19.19C167.63,283.66,209.06,279,222.64,282.3Z"></path><path d="M222.64,282.3c17.77,6.53,33.18,12.69,35.35,32.09S260.08,344,260.08,344c-10.94,26.08-46.29,29.38-52.95,19.47,0,0-1.9-25.46-.9-31.44-15.6-8.43-29-16-32.8-19.19C167.63,283.66,209.06,279,222.64,282.3Z" style="opacity:0.2"></path></g><g style="opacity:0.2"><path d="M222.64,282.3c17.77,6.53,33.18,12.69,35.35,32.09S260.08,344,260.08,344c-10.94,26.08-46.29,29.38-52.95,19.47,0,0-1.9-25.46-.9-31.44-15.6-8.43-29-16-32.8-19.19C167.63,283.66,209.06,279,222.64,282.3Z" style="fill:#fff"></path><path d="M222.64,282.3c17.77,6.53,33.18,12.69,35.35,32.09S260.08,344,260.08,344c-10.94,26.08-46.29,29.38-52.95,19.47,0,0-1.9-25.46-.9-31.44-15.6-8.43-29-16-32.8-19.19C167.63,283.66,209.06,279,222.64,282.3Z" style="fill:#fff;opacity:0.2"></path></g><path d="M173.43,312.79c2.36-6.15,8.1-10.42,14.15-13s12.58-3.89,18.79-6.1,13.85-6.06,17.35-11.63l-.28-.25a9.4,9.4,0,0,1-2.35-11.33,13,13,0,0,0,1.3-5.42c.1-3.48-.91-6.88-1.92-10.21q-3.65-12.16-7.3-24.32c-13.95-6.61-21.68-5.54-30.37-4.47s-18.68,6.24-22.26,23.39S153.69,306.8,173.43,312.79Z" style="fill:#EFE3AF"></path><path d="M173.43,312.79c2.36-6.15,8.1-10.42,14.15-13s12.58-3.89,18.79-6.1,13.85-6.06,17.35-11.63l-.28-.25a9.4,9.4,0,0,1-2.35-11.33,13,13,0,0,0,1.3-5.42c.1-3.48-.91-6.88-1.92-10.21q-3.65-12.16-7.3-24.32c-13.95-6.61-21.68-5.54-30.37-4.47s-18.68,6.24-22.26,23.39S153.69,306.8,173.43,312.79Z" style="opacity:0.30000000000000004"></path><path d="M173.43,312.79c2.36-6.15,8.1-10.42,14.15-13s12.58-3.89,18.79-6.1,13.85-6.06,17.35-11.63l-.28-.25a9.4,9.4,0,0,1-2.35-11.33,13,13,0,0,0,1.3-5.42c.1-3.48-.91-6.88-1.92-10.21q-3.65-12.16-7.3-24.32c-13.95-6.61-21.68-5.54-30.37-4.47s-18.68,6.24-22.26,23.39S153.69,306.8,173.43,312.79Z" style="fill:#fff;opacity:0.1"></path><path d="M205.35,230.32l-.78,5.89a10.77,10.77,0,0,1-15.47-5.44,21.66,21.66,0,0,0,2.07-5.43A69.63,69.63,0,0,0,205.35,230.32Z" style="fill:#ffa8a7"></path><path d="M205.35,230.32l-.78,5.89c-10-1.55-14.6-4.85-13.79-9.41h0c.15-.49.28-1,.39-1.46A69.63,69.63,0,0,0,205.35,230.32Z" style="opacity:0.2"></path><path d="M185.36,193.34a7.34,7.34,0,0,0-7.4-1,9.14,9.14,0,0,0-5,5.73,9,9,0,0,0,.12,5.81,7.15,7.15,0,0,0,4,4.12,7.38,7.38,0,0,0,7-1.2C187.75,204,189.34,196.66,185.36,193.34Z" style="fill:#f5f5f5"></path><path d="M182.54,203.06a7.13,7.13,0,0,1,4.52-7.42c1.59,3.67,0,8.88-3,11.19a7.41,7.41,0,0,1-6.55,1.32A11.8,11.8,0,0,1,182.54,203.06Z" style="opacity:0.1"></path><path d="M217,214.83a4.43,4.43,0,0,0,3-4,7.54,7.54,0,0,0-1.76-4.92,5.76,5.76,0,0,0,1.26-5.66,8.78,8.78,0,0,0-3.87-4.48,20,20,0,0,0-5.64-2.09c-5.16-1.23-10.66-1.69-15.7,0s-9.5,5.76-10.45,11a9.7,9.7,0,0,0-5,6.89,19.36,19.36,0,0,0,.75,8.7c.75,2.65,1.86,5.32,3.93,7.13s5.34,2.48,7.62.94a6.7,6.7,0,0,0,2.47-3.67,20.21,20.21,0,0,0,.6-4.46C200.58,215.75,209.49,216.92,217,214.83Z" style="fill:#f5f5f5"></path><path d="M189.93,225.81a5.77,5.77,0,0,0,2.36,4.78,16.89,16.89,0,0,0,5,2.47,35.26,35.26,0,0,0,7.22,2.09,10.6,10.6,0,0,0,12.66-8.58,35.27,35.27,0,0,0,.75-9.41,33.1,33.1,0,0,0-.47-6.37,11.13,11.13,0,0,0-2.81-5.66c-.16,1.45-2.05,2.28-3.49,2.45a8.64,8.64,0,0,1-4.21-.88,13.15,13.15,0,0,0-4.15-1.24c-2.68-.15-5.18,1.62-6.63,3.89a20.84,20.84,0,0,0-2.5,7.59,4.44,4.44,0,0,1-.64,1.86,1.47,1.47,0,0,1-1.74.56c-.48-.25-.69-.79-1-1.25a4.13,4.13,0,0,0-5.91-.79,4.89,4.89,0,0,0-.82,6.15C184.72,225.38,187.7,226.12,189.93,225.81Z" style="fill:#ffa8a7"></path><polygon points="207.53 217.47 212.7 223.19 208.27 224.98 207.53 217.47" style="fill:#f28f8f"></polygon><path d="M204.29,228.11l3.84,1a2.35,2.35,0,0,1-2.5,1.29A2.1,2.1,0,0,1,204.29,228.11Z" style="fill:#f28f8f"></path><path d="M204.29,228.11l3.84,1a2.35,2.35,0,0,1-2.5,1.29A2.1,2.1,0,0,1,204.29,228.11Z" style="opacity:0.30000000000000004"></path><path d="M206.86,230.27a2.28,2.28,0,0,1-1.23.13,1.91,1.91,0,0,1-1.31-1.66,2.14,2.14,0,0,1,2.54,1.53Z" style="fill:#f28f8f"></path><path d="M200.91,219.07a1.35,1.35,0,0,0,2.69-.27,1.35,1.35,0,0,0-2.69.27Z" style="fill:#263238"></path><path d="M212.14,217.52a1.35,1.35,0,1,0,2.68-.27,1.35,1.35,0,0,0-2.68.27Z" style="fill:#263238"></path><path d="M212.91,212.05l3.18,1.76a1.9,1.9,0,0,0-.79-2A2.27,2.27,0,0,0,212.91,212.05Z" style="fill:#263238"></path><path d="M201.41,213l-2.77,2.35a1.91,1.91,0,0,1,.37-2.16A2.25,2.25,0,0,1,201.41,213Z" style="fill:#263238"></path><path d="M196.16,216.49l.17,1.09h.85a12.75,12.75,0,0,0,.87,4.31,4.07,4.07,0,0,0,4.19,2.65l1.12-.1a4.11,4.11,0,0,0,3.33-2.35,12.74,12.74,0,0,0,1.15-4.05.61.61,0,0,1,.54-.55l.63-.06a.61.61,0,0,1,.64.49,8.21,8.21,0,0,0,1.28,2.77,4.11,4.11,0,0,0,4.95,1.48l1.06-.44a3.3,3.3,0,0,0,2.06-2.82l.3-3.89.79-.46-.24-1.47a13.15,13.15,0,0,0-10.37,2.83c-.55,0-1.22.12-1.76.13C205.31,214.57,198.91,215,196.16,216.49Zm14.3,0a11.31,11.31,0,0,1,7.38-2.53l.48,0c0,.17-.4,4.81-.4,4.81a2.25,2.25,0,0,1-1.39,1.9l-1.06.43a3.06,3.06,0,0,1-1.15.23,3,3,0,0,1-2.49-1.31,7.1,7.1,0,0,1-1.12-2.4A7.53,7.53,0,0,1,210.46,216.53Zm-12.19,1.07v-.76a18.73,18.73,0,0,1,4.79-.61,9.66,9.66,0,0,1,3.82.61c0,.47-.1.73-.13,1.1a11.18,11.18,0,0,1-1.06,3.69,3,3,0,0,1-2.44,1.72l-1.12.11h-.27a3,3,0,0,1-2.8-2A11.8,11.8,0,0,1,198.27,217.6Z" style="fill:#37474f"></path><path d="M196.16,216.49l-6.31,1.1a7.93,7.93,0,0,1,.61.87l5.87-.88Z" style="fill:#37474f"></path><polygon points="264.15 285.02 232.15 266.38 195.09 288.3 226.86 303.21 264.15 285.02" style="fill:#EFE3AF"></polygon><polygon points="264.15 285.02 232.15 266.38 195.09 288.3 226.86 303.21 264.15 285.02" style="fill:#fff;opacity:0.2"></polygon><g style="opacity:0.4"><path d="M224.81,299.88l-22.47-10.55.31-.18a1.37,1.37,0,0,0-.11-2.41l-.34-.16,27.6-16.32.1.06a4.48,4.48,0,0,0,4.53,0l.1-.06.1.06,22.45,13.07-.33.16a1.36,1.36,0,0,0-.76,1.18,1.34,1.34,0,0,0,.68,1.23l.31.18-28.13,13.72-.08,0a4.49,4.49,0,0,0-3.87,0Zm-21.68-10.6,21.68,10.17a4.87,4.87,0,0,1,4,0l27.34-13.34a1.73,1.73,0,0,1-.59-1.38,1.71,1.71,0,0,1,.69-1.33L234.53,270.7a4.85,4.85,0,0,1-4.73,0L203,286.56a1.76,1.76,0,0,1,.13,2.72Z" style="fill:#fff"></path></g><polygon points="232.15 264.63 195.59 286.32 195.09 288.3 232.15 266.38 232.15 264.63" style="fill:#EFE3AF"></polygon><polygon points="264.15 285.02 232.15 266.38 232.15 264.63 264.15 283.27 264.15 285.02" style="fill:#EFE3AF"></polygon><polygon points="232.15 264.63 195.59 286.32 195.09 288.3 232.15 266.38 232.15 264.63" style="fill:#fff;opacity:0.30000000000000004"></polygon><polygon points="264.15 285.02 232.15 266.38 232.15 264.63 264.15 283.27 264.15 285.02" style="fill:#fff;opacity:0.4"></polygon><polygon points="264.15 283.27 287.3 265.46 288.2 266.54 264.15 285.02 264.15 283.27" style="fill:#EFE3AF"></polygon><polygon points="264.15 283.27 287.3 265.46 288.2 266.54 264.15 285.02 264.15 283.27" style="fill:#fff;opacity:0.4"></polygon><polygon points="287.3 265.46 255.25 278.08 264.15 283.27 287.3 265.46" style="fill:#EFE3AF"></polygon><polygon points="287.3 265.46 255.25 278.08 264.15 283.27 287.3 265.46" style="opacity:0.1"></polygon><path d="M231.65,302.75a.77.77,0,0,1,0,.15,3,3,0,0,0,.67.09h.1a1.81,1.81,0,0,0,0-.23,2.71,2.71,0,0,0-.89-1.82l-.73.35a.38.38,0,0,0,.11.14A2,2,0,0,1,231.65,302.75Z" style="fill:#455a64"></path><path d="M231.31,303.62a2.46,2.46,0,0,1-1.89.79,2.15,2.15,0,0,1-2.2-1.37,1,1,0,0,1,0-.29,1.65,1.65,0,0,1,0-.38.38.38,0,0,0-.25-.48.38.38,0,0,0-.49.25,2.1,2.1,0,0,0-.09.61,2.19,2.19,0,0,0,.11.63,3,3,0,0,0,2.91,1.81,3.11,3.11,0,0,0,2.74-1.44A3.87,3.87,0,0,1,231.31,303.62Z" style="fill:#455a64"></path><path d="M234.54,301.32a.77.77,0,0,1,0,.15,2.93,2.93,0,0,0,.67.09h.1a1.81,1.81,0,0,0,0-.23,2.62,2.62,0,0,0-.92-1.79l-.72.36a.26.26,0,0,0,.1.13A1.91,1.91,0,0,1,234.54,301.32Z" style="fill:#37474f"></path><path d="M234.2,302.19a2.49,2.49,0,0,1-1.8.79h-.1a3,3,0,0,1-.67-.09,1.94,1.94,0,0,1-1.52-1.27,1.12,1.12,0,0,1-.05-.31,1.15,1.15,0,0,1,.06-.37.39.39,0,0,0-.26-.49.38.38,0,0,0-.48.26,2,2,0,0,0-.1.6,2.09,2.09,0,0,0,.13.65,2.73,2.73,0,0,0,1.9,1.65,3.87,3.87,0,0,0,.85.13h.14a3.13,3.13,0,0,0,2.75-1.44A3.36,3.36,0,0,1,234.2,302.19Z" style="fill:#37474f"></path><path d="M237.43,299.89c0,.05,0,.1,0,.15a2.85,2.85,0,0,0,.67.09h.1a1.81,1.81,0,0,0,0-.23,2.56,2.56,0,0,0-.89-1.78l-.71.35a.33.33,0,0,0,.11.13A1.9,1.9,0,0,1,237.43,299.89Z" style="fill:#455a64"></path><path d="M237.09,300.76a2.45,2.45,0,0,1-1.8.79h-.1a2.93,2.93,0,0,1-.67-.09,2,2,0,0,1-1.52-1.25,1.26,1.26,0,0,1-.05-.33,1.15,1.15,0,0,1,.06-.37.39.39,0,1,0-.75-.23,2,2,0,0,0-.09.6,2.21,2.21,0,0,0,.13.67,2.75,2.75,0,0,0,1.9,1.63,3.36,3.36,0,0,0,.85.13l.14,0a3.12,3.12,0,0,0,2.74-1.44A3.88,3.88,0,0,1,237.09,300.76Z" style="fill:#455a64"></path><path d="M240.32,298.46c0,.05,0,.1,0,.15a2.85,2.85,0,0,0,.67.09h.1a1.81,1.81,0,0,0,0-.23,2.53,2.53,0,0,0-.87-1.77l-.71.35a.26.26,0,0,0,.1.13A1.81,1.81,0,0,1,240.32,298.46Z" style="fill:#37474f"></path><path d="M240,299.33a2.45,2.45,0,0,1-1.8.79h-.1a2.85,2.85,0,0,1-.67-.09,2,2,0,0,1-1.52-1.23,1.41,1.41,0,0,1,0-.35,1.15,1.15,0,0,1,.06-.37.39.39,0,1,0-.75-.23,2,2,0,0,0-.09.6,1.92,1.92,0,0,0,.14.68,2.74,2.74,0,0,0,1.89,1.62,3.88,3.88,0,0,0,.84.14h.15a3.12,3.12,0,0,0,2.74-1.44A3.28,3.28,0,0,1,240,299.33Z" style="fill:#37474f"></path><path d="M243.2,297a1,1,0,0,1,0,.16,3,3,0,0,0,.67.08H244c0-.07,0-.15,0-.23a2.53,2.53,0,0,0-.84-1.76l-.72.35a.36.36,0,0,0,.11.14A1.77,1.77,0,0,1,243.2,297Z" style="fill:#455a64"></path><path d="M242.86,297.9a2.37,2.37,0,0,1-1.79.79H241a2.85,2.85,0,0,1-.67-.09,2,2,0,0,1-1.52-1.22,1.36,1.36,0,0,1-.05-.36,1.57,1.57,0,0,1,.05-.37.39.39,0,1,0-.74-.23,2.08,2.08,0,0,0-.09.6,2,2,0,0,0,.14.7,2.73,2.73,0,0,0,1.89,1.6,3.28,3.28,0,0,0,.84.14H241a3.11,3.11,0,0,0,2.74-1.44A3.36,3.36,0,0,1,242.86,297.9Z" style="fill:#455a64"></path><path d="M246.09,295.6a.78.78,0,0,1,0,.16,2.93,2.93,0,0,0,.67.08h.1a1.6,1.6,0,0,0,0-.23,2.45,2.45,0,0,0-.89-1.72l-.71.35a.33.33,0,0,0,.1.14A1.75,1.75,0,0,1,246.09,295.6Z" style="fill:#37474f"></path><path d="M245.75,296.48a2.42,2.42,0,0,1-1.79.78h-.11a3,3,0,0,1-.67-.08,2,2,0,0,1-1.5-1.21,1.21,1.21,0,0,1-.06-.38,1.18,1.18,0,0,1,0-.37.39.39,0,0,0-.26-.49.39.39,0,0,0-.48.26,2.08,2.08,0,0,0-.09.6,2.19,2.19,0,0,0,.14.72,2.76,2.76,0,0,0,1.88,1.58,3.36,3.36,0,0,0,.85.14h.14a3.13,3.13,0,0,0,2.75-1.44A3.87,3.87,0,0,1,245.75,296.48Z" style="fill:#37474f"></path><path d="M249,294.17a.78.78,0,0,1,0,.16,2.86,2.86,0,0,0,.67.08h.1a2,2,0,0,0,0-.24,2.43,2.43,0,0,0-.82-1.73l-.71.35a.26.26,0,0,0,.1.13A1.7,1.7,0,0,1,249,294.17Z" style="fill:#455a64"></path><path d="M248.64,295.05a2.44,2.44,0,0,1-1.8.78h-.1a2.93,2.93,0,0,1-.67-.08,2,2,0,0,1-1.5-1.19,1.34,1.34,0,0,1-.07-.4,1.19,1.19,0,0,1,.06-.37.38.38,0,0,0-.26-.48.39.39,0,0,0-.49.25,1.9,1.9,0,0,0,.07,1.34,2.8,2.8,0,0,0,1.87,1.57,3.87,3.87,0,0,0,.85.13h.14a3.1,3.1,0,0,0,2.74-1.44A3.87,3.87,0,0,1,248.64,295.05Z" style="fill:#455a64"></path><path d="M251.87,292.74c0,.06,0,.11,0,.16a2.86,2.86,0,0,0,.67.08h.1a2,2,0,0,0,0-.24,2.39,2.39,0,0,0-.83-1.71l-.72.35a.38.38,0,0,0,.11.14A1.68,1.68,0,0,1,251.87,292.74Z" style="fill:#37474f"></path><path d="M251.53,293.62a2.49,2.49,0,0,1-1.8.79h-.1a2.86,2.86,0,0,1-.67-.08,2,2,0,0,1-1.49-1.17,1.16,1.16,0,0,1,0-.79.38.38,0,0,0-.26-.48.39.39,0,0,0-.49.25,2.08,2.08,0,0,0-.09.6,2.15,2.15,0,0,0,.16.76,2.77,2.77,0,0,0,1.87,1.55,3.87,3.87,0,0,0,.84.13h.15a3.1,3.1,0,0,0,2.74-1.44A3.87,3.87,0,0,1,251.53,293.62Z" style="fill:#37474f"></path><path d="M254.76,291.32a.8.8,0,0,1,0,.15,3,3,0,0,0,.67.09h.11a1.79,1.79,0,0,0,0-.23,2.36,2.36,0,0,0-.82-1.7L254,290a.38.38,0,0,0,.11.14A1.64,1.64,0,0,1,254.76,291.32Z" style="fill:#455a64"></path><path d="M254.42,292.19a2.49,2.49,0,0,1-1.8.79h-.1a2.86,2.86,0,0,1-.67-.08,2,2,0,0,1-1.49-1.16,1.2,1.2,0,0,1-.08-.42,1.65,1.65,0,0,1,.05-.38.38.38,0,0,0-.25-.48.38.38,0,0,0-.49.26,2,2,0,0,0-.09.6,2,2,0,0,0,.17.76,2.77,2.77,0,0,0,1.86,1.54,3.87,3.87,0,0,0,.84.13h.15a3.11,3.11,0,0,0,2.74-1.44A3.21,3.21,0,0,1,254.42,292.19Z" style="fill:#455a64"></path><path d="M257.64,289.89a.77.77,0,0,1,0,.15,2.93,2.93,0,0,0,.67.09h.1a1.81,1.81,0,0,0,0-.23,2.32,2.32,0,0,0-.8-1.69l-.72.35a.49.49,0,0,0,.11.14A1.57,1.57,0,0,1,257.64,289.89Z" style="fill:#37474f"></path><path d="M257.3,290.76a2.43,2.43,0,0,1-1.79.79h-.11a3,3,0,0,1-.67-.09,2,2,0,0,1-1.47-1.14,1.12,1.12,0,0,1-.09-.44,1.14,1.14,0,0,1,.05-.37A.38.38,0,0,0,253,289a.38.38,0,0,0-.48.26,2,2,0,0,0-.09.6,2.1,2.1,0,0,0,.17.78,2.79,2.79,0,0,0,1.86,1.52,3.21,3.21,0,0,0,.84.13l.14,0a3.15,3.15,0,0,0,2.75-1.44A3.87,3.87,0,0,1,257.3,290.76Z" style="fill:#37474f"></path><path d="M260.53,288.46a.77.77,0,0,1,0,.15,2.85,2.85,0,0,0,.67.09h.1a1.81,1.81,0,0,0,0-.23,2.24,2.24,0,0,0-.82-1.66l-.72.35a.49.49,0,0,0,.11.14A1.54,1.54,0,0,1,260.53,288.46Z" style="fill:#455a64"></path><path d="M260.19,289.33a2.45,2.45,0,0,1-1.8.79h-.1a2.93,2.93,0,0,1-.67-.09,2,2,0,0,1-1.47-1.12,1.23,1.23,0,0,1-.1-.46,1.15,1.15,0,0,1,.06-.37.39.39,0,0,0-.26-.49.38.38,0,0,0-.48.26,1.76,1.76,0,0,0-.1.6,2,2,0,0,0,.18.8,2.84,2.84,0,0,0,1.85,1.5,3.87,3.87,0,0,0,.85.14h.14a3.12,3.12,0,0,0,2.74-1.44A3.88,3.88,0,0,1,260.19,289.33Z" style="fill:#455a64"></path><path d="M263.42,287a.86.86,0,0,1,0,.17,2.58,2.58,0,0,0,.8-.12.43.43,0,0,0,0-.05,2.2,2.2,0,0,0-.8-1.65l-.71.35a.33.33,0,0,0,.11.15A1.46,1.46,0,0,1,263.42,287Z" style="fill:#37474f"></path><path d="M263.37,288l-.33,0a2.51,2.51,0,0,1-1.76.73h-.1a2.85,2.85,0,0,1-.67-.09,2,2,0,0,1-1.46-1.1,1.13,1.13,0,0,1-.11-.48,1.15,1.15,0,0,1,.06-.37.39.39,0,1,0-.75-.23,2,2,0,0,0-.09.6,1.93,1.93,0,0,0,.19.82,2.77,2.77,0,0,0,1.84,1.48,3.88,3.88,0,0,0,.84.14h.15a3.07,3.07,0,0,0,2.8-1.55A3.08,3.08,0,0,1,263.37,288Z" style="fill:#37474f"></path><path d="M265.47,283.77a.39.39,0,1,0-.48.62,1.46,1.46,0,0,1,.62,1.15,1.75,1.75,0,0,1-1.42,1.54,2.58,2.58,0,0,1-.8.12h0a2.4,2.4,0,0,1-1.94-.85,1.31,1.31,0,0,1-.3-.81,1.26,1.26,0,0,1,.06-.38.39.39,0,0,0-.75-.23,2,2,0,0,0,.28,1.76A3.09,3.09,0,0,0,263,288l.33,0a3.08,3.08,0,0,0,.61-.05,2.64,2.64,0,0,0,2.41-2.39A2.25,2.25,0,0,0,265.47,283.77Z" style="fill:#455a64"></path><path d="M229.07,279.61l-1-.56,1.24-.89-1.18-.69c-.63.27-.94.41-1.58.71l-.88-.51c3.53-1.63,5.37-2.24,8.18-3.38l1.43.81C233.26,276.72,231.79,277.61,229.07,279.61Zm.26-2.64.92.54c1.36-.94,2-1.38,3.18-2.21h0C231.89,275.91,231.05,276.24,229.33,277Z" style="fill:#EFE3AF"></path><path d="M236.76,275.94l1,.57c-2.13,1.2-3.5,1.86-6.15,3.3l1.59.92-1.11.6-2.55-1.47C232.63,278.11,234.29,277.34,236.76,275.94Z" style="fill:#EFE3AF"></path><path d="M241.2,280.24l-.26.14a3.21,3.21,0,0,1-2.09.39h0c.28.43-.08.84-.89,1.25l-.63.32a3.36,3.36,0,0,1-3.3.09l-1.52-.87c3.09-1.67,4.78-2.46,7.3-3.88l1.49.86C242.31,279.14,242.28,279.66,241.2,280.24Zm-1.36-1.46-1.86,1,.38.22a1.27,1.27,0,0,0,1.35-.05l.4-.21c.5-.27.56-.47.21-.68Zm-2.92,1.54-2.36,1.22.55.32a1.21,1.21,0,0,0,1.27-.1l.67-.34c.71-.37.74-.58.3-.84Z" style="fill:#EFE3AF"></path><path d="M244.39,280.34c-2,1.12-3.26,1.73-5.65,2.92-.55.28-.56.49-.25.67a1.26,1.26,0,0,0,1.25-.08c2.39-1.18,3.64-1.79,5.67-2.92l.93.54c-2,1.11-3.25,1.72-5.61,2.88a3.59,3.59,0,0,1-3.39.12c-.94-.55-.73-1.19.51-1.81,2.36-1.19,3.57-1.79,5.55-2.89Z" style="fill:#EFE3AF"></path><path d="M243.81,285.73h0c2.47-.91,3.74-1.4,5.92-2.31l1.34.77a82.1,82.1,0,0,1-7.51,3.74l-.91-.52c2.18-1,3.38-1.57,5.5-2.67h0c-2.38.95-3.7,1.44-6.15,2.29l-.91-.52c1.88-1.17,2.92-1.82,4.72-3.06h0c-2.08,1.08-3.25,1.64-5.42,2.66l-.84-.49c3.07-1.46,4.81-2.29,7.47-3.76l1.36.78C246.74,283.85,245.74,284.51,243.81,285.73Z" style="fill:#EFE3AF"></path><g style="opacity:0.1"><path d="M229.07,279.61l-1-.56,1.24-.89-1.18-.69c-.63.27-.94.41-1.58.71l-.88-.51c3.53-1.63,5.37-2.24,8.18-3.38l1.43.81C233.26,276.72,231.79,277.61,229.07,279.61Zm.26-2.64.92.54c1.36-.94,2-1.38,3.18-2.21h0C231.89,275.91,231.05,276.24,229.33,277Z"></path><path d="M236.76,275.94l1,.57c-2.13,1.2-3.5,1.86-6.15,3.3l1.59.92-1.11.6-2.55-1.47C232.63,278.11,234.29,277.34,236.76,275.94Z"></path><path d="M241.2,280.24l-.26.14a3.21,3.21,0,0,1-2.09.39h0c.28.43-.08.84-.89,1.25l-.63.32a3.36,3.36,0,0,1-3.3.09l-1.52-.87c3.09-1.67,4.78-2.46,7.3-3.88l1.49.86C242.31,279.14,242.28,279.66,241.2,280.24Zm-1.36-1.46-1.86,1,.38.22a1.27,1.27,0,0,0,1.35-.05l.4-.21c.5-.27.56-.47.21-.68Zm-2.92,1.54-2.36,1.22.55.32a1.21,1.21,0,0,0,1.27-.1l.67-.34c.71-.37.74-.58.3-.84Z"></path><path d="M244.39,280.34c-2,1.12-3.26,1.73-5.65,2.92-.55.28-.56.49-.25.67a1.26,1.26,0,0,0,1.25-.08c2.39-1.18,3.64-1.79,5.67-2.92l.93.54c-2,1.11-3.25,1.72-5.61,2.88a3.59,3.59,0,0,1-3.39.12c-.94-.55-.73-1.19.51-1.81,2.36-1.19,3.57-1.79,5.55-2.89Z"></path><path d="M243.81,285.73h0c2.47-.91,3.74-1.4,5.92-2.31l1.34.77a82.1,82.1,0,0,1-7.51,3.74l-.91-.52c2.18-1,3.38-1.57,5.5-2.67h0c-2.38.95-3.7,1.44-6.15,2.29l-.91-.52c1.88-1.17,2.92-1.82,4.72-3.06h0c-2.08,1.08-3.25,1.64-5.42,2.66l-.84-.49c3.07-1.46,4.81-2.29,7.47-3.76l1.36.78C246.74,283.85,245.74,284.51,243.81,285.73Z"></path></g><polygon points="264.15 283.27 232.17 262.42 196.63 283.56 198.6 284.54 232.15 264.63 264.15 283.27" style="fill:#e0e0e0"></polygon><polygon points="264.15 283.27 232.49 259.95 197.03 281.76 198.19 282.63 232.17 262.42 264.15 283.27" style="fill:#f0f0f0"></polygon><polygon points="264.15 283.27 284.57 265.02 255.27 276.73 264.15 283.27" style="fill:#e0e0e0"></polygon><polygon points="264.15 283.27 280.04 265.7 254.76 276.36 264.15 283.27" style="fill:#f0f0f0"></polygon><path d="M194.52,293c2.21-1.46,4.72-8.81-1-12.94C179.32,281.38,188.29,292.42,194.52,293Z" style="fill:#EFE3AF"></path><path d="M194.52,293c2.21-1.46,4.72-8.81-1-12.94C179.32,281.38,188.29,292.42,194.52,293Z" style="opacity:0.5"></path><path d="M179.29,236.15c2.26,8.12-6.38,27.94-9.68,43A227.3,227.3,0,0,0,192.38,282a6.67,6.67,0,0,0,5.38-2.23l.81-.91a7,7,0,0,1,2.85-2l7.55-2.75a.52.52,0,0,1,.69.38h0a3.08,3.08,0,0,1-1.22,3.18l-4.32,3.1c5.08,3.5,13.48-2.88,15.12-.9a6.6,6.6,0,0,1-1.7,9.47c-4.06,2.71-9.53,4.51-15.11,3.27l-4.57-1.24c-19.8.78-29.93.08-36.15-.9a8.23,8.23,0,0,1-6.89-9.05c1.7-15.1,6.08-36.45,10.88-42.4C171.26,232.11,179.29,236.15,179.29,236.15Z" style="fill:#ffa8a7"></path><path d="M178.61,233.41c-11.15-5.57-16.17,4.19-18.22,10.13s-7.44,27.59-7.45,39.2c0,10.53,12.4,10.23,20.21,10.23h21.37c-5.84-4.51-4.58-11.48-1-12.94-6.77-1.66-22.22-1.95-22.22-1.95C185,245.44,183.1,235.65,178.61,233.41Z" style="fill:#EFE3AF"></path><path d="M178.61,233.41c-11.15-5.57-16.17,4.19-18.22,10.13s-7.44,27.59-7.45,39.2c0,10.53,12.4,10.23,20.21,10.23h21.37c-5.84-4.51-4.58-11.48-1-12.94-6.77-1.66-22.22-1.95-22.22-1.95C185,245.44,183.1,235.65,178.61,233.41Z" style="opacity:0.5"></path><path d="M178.61,233.41c-11.15-5.57-16.17,4.19-18.22,10.13s-7.44,27.59-7.45,39.2c0,10.53,12.4,10.23,20.21,10.23h21.37c-5.84-4.51-4.58-11.48-1-12.94-6.77-1.66-22.22-1.95-22.22-1.95C185,245.44,183.1,235.65,178.61,233.41Z" style="fill:#fff;opacity:0.1"></path><path d="M201.71,312.79a7.93,7.93,0,0,0-2.6-2.45l-53.39-30.65a3.84,3.84,0,0,0-3.81,0h0l-.15.09L128,287.8a3.86,3.86,0,0,0-2.12,3.46V344a7.8,7.8,0,0,0,3.91,6.76l53.4,30.65a3.86,3.86,0,0,0,4.08-.13h0l13.69-8a2.58,2.58,0,0,0,.32-.18l0,0h0A3.83,3.83,0,0,0,203,369.8V317.11A7.78,7.78,0,0,0,201.71,312.79Zm-14.12,8.07Z" style="fill:#455a64"></path><path d="M189,378v-52.7a7.8,7.8,0,0,0-3.92-6.76l-53.39-30.65a3.91,3.91,0,0,0-5.84,3.38V344a7.8,7.8,0,0,0,3.91,6.76l53.4,30.65A3.91,3.91,0,0,0,189,378Z" style="opacity:0.2"></path><path d="M187.59,320.86a7.78,7.78,0,0,1,1.41,4.43V378a3.86,3.86,0,0,1-1.76,3.25h0l13.69-8a2.58,2.58,0,0,0,.32-.18l0,0h0A3.83,3.83,0,0,0,203,369.8V317.11a7.78,7.78,0,0,0-1.32-4.32Z" style="opacity:0.1"></path></g></svg>